<svg id="Layer_1" data-name="Layer 1" xmlns="http://www.w3.org/2000/svg" viewBox="0 0 660.4 741.47">
    <style>
      .cls-1 {
        fill: #fdf2a8;
      }

      .cls-2 {
        fill: #231f20;
      }

      .cls-3 {
        fill: #fefef9;
      }

      .cls-4 {
        fill: #b29957;
      }

      .cls-5 {
        fill: #080301;
      }

      .cls-6 {
        fill: #520901;
      }

      .cls-10, .cls-7 {
        fill: #180301;
      }

      .cls-16, .cls-17, .cls-18, .cls-7 {
        stroke: #020202;
      }

      .cls-11, .cls-12, .cls-16, .cls-17, .cls-18, .cls-7 {
        stroke-miterlimit: 10;
      }

      .cls-16, .cls-7 {
        stroke-width: 0;
      }

      .cls-8 {
        fill: #5c5a5a;
      }

      .cls-9 {
        fill: #706e6e;
      }

      .cls-11, .cls-17, .cls-18 {
        fill: none;
      }

      .cls-11 {
        stroke: #231f20;
      }

      .cls-11, .cls-12, .cls-17 {
        stroke-width: 2.29px;
      }

      .cls-12, .cls-13 {
        fill: #fff;
      }

      .cls-12 {
        stroke: #180301;
      }

      .cls-14 {
        fill: #050504;
      }

      .cls-15 {
        fill: #020202;
      }

      .cls-16 {
        fill: #f9f7f7;
      }

      .cls-18 {
        stroke-width: 3px;
      }
    </style>
  <path class="cls-1" d="M437.12,385l-1.06,1.19C436.06,386.48,435.4,383.14,437.12,385Z" transform="translate(-243.01 -71.13)"/>
  <path class="cls-1" d="M435.07,384.64c-.25.11-.28.19,0,0C435.41,384.68,435.11,385.58,435.07,384.64Z" transform="translate(-243.01 -71.13)"/>
  <path class="cls-1" d="M433.06,385.7h0C432.82,385.9,434.2,385.35,433.06,385.7Z" transform="translate(-243.01 -71.13)"/>
  <path class="cls-2" d="M449.5,364.09l0-.1C449.37,363.78,449.46,364,449.5,364.09Z" transform="translate(-243.01 -71.13)"/>
  <path class="cls-3" d="M483.94,677.83c-.48-.55-.84-.6,0,0C484.13,678.45,481.75,678.82,483.94,677.83Z" transform="translate(-243.01 -71.13)"/>
  <path class="cls-4" d="M880.39,268.34c-.1,0-.15,0,0,0S880,268.55,880.39,268.34Z" transform="translate(-243.01 -71.13)"/>
  <path class="cls-4" d="M431.47,395.94h0C431.23,396.14,432.63,395.58,431.47,395.94Z" transform="translate(-243.01 -71.13)"/>
  <path class="cls-2" d="M591.62,274.89c6.51-12.81-4.12,45.18-7.72,49C576.67,331.66,593.63,282.8,591.62,274.89Z" transform="translate(-243.01 -71.13)"/>
  <path class="cls-5" d="M825.51,333c.71,1.7-15.8-7.87-9.81-.44C816.81,333.24,825.79,338,825.51,333Z" transform="translate(-243.01 -71.13)"/>
  <path class="cls-4" d="M532.59,556.93c-.15-.28-.23-.29,0,0C532.56,557.25,531.62,557,532.59,556.93Z" transform="translate(-243.01 -71.13)"/>
  <path class="cls-2" d="M677.3,539.84c4.15,3.83-6.58,4.19-3.67-.35C675,540.15,675.26,539,677.3,539.84Z" transform="translate(-243.01 -71.13)"/>
  <path class="cls-2" d="M630.64,477.22l-.17-.06Z" transform="translate(-243.01 -71.13)"/>
  <path class="cls-2" d="M531.66,71.14Z" transform="translate(-243.01 -71.13)"/>
  <path class="cls-2" d="M881.19,311.84c-.07.11-.06.15,0,0Z" transform="translate(-243.01 -71.13)"/>
  <path class="cls-4" d="M593.56,277.23l.17-.16C593.66,277.11,593.75,277.12,593.56,277.23Z" transform="translate(-243.01 -71.13)"/>
  <path class="cls-2" d="M800.13,312c-1.71-.65-1-4.31,1.2-4.37a1.64,1.64,0,0,1,1.6,1.87C802.76,310.77,802.16,312.44,800.13,312Z" transform="translate(-243.01 -71.13)"/>
  <g>
    <g>
      <path class="cls-2" d="M847.08,578.16c0,.28-.06.55-.08.83A2.42,2.42,0,0,0,847.08,578.16Z" transform="translate(-243.01 -71.13)"/>
      <path class="cls-2" d="M837.85,551v0C837.92,550.94,837.92,551,837.85,551Z" transform="translate(-243.01 -71.13)"/>
    </g>
    <path class="cls-2" d="M848.78,438.11c-.22.2-.14.14,0,0Z" transform="translate(-243.01 -71.13)"/>
  </g>
  <path class="cls-2" d="M683.57,485.43c-.5-.13-.44-.47-.33-.83Z" transform="translate(-243.01 -71.13)"/>
  <path class="cls-2" d="M684.63,487.46a.72.72,0,0,1,0-.36C685.09,487.26,684.91,487.36,684.63,487.46Z" transform="translate(-243.01 -71.13)"/>
  <path class="cls-2" d="M806.39,312.07s0,.32-.37.17Z" transform="translate(-243.01 -71.13)"/>
  <path class="cls-6" d="M740.66,313.15h0" transform="translate(-243.01 -71.13)"/>
  <g>
    <path class="cls-2" d="M760.19,374.41c1.76-1.06,3.49-3.15,2.56-4.16C757.56,369.08,758.39,374.2,760.19,374.41Z" transform="translate(-243.01 -71.13)"/>
    <g>
      <path class="cls-2" d="M815.2,339.08c-18.89-.79,4,16.49,8.75,5.46C822.32,341.13,821,339.25,815.2,339.08Z" transform="translate(-243.01 -71.13)"/>
      <path class="cls-2" d="M782.54,339.19c-3.24-2.1-4.66,2.88-2.69,3.63C782.65,343.48,782.57,339.81,782.54,339.19Z" transform="translate(-243.01 -71.13)"/>
      <g>
        <path class="cls-2" d="M849.49,447.7c0,.05,0,.07,0,0S849.48,447.7,849.49,447.7Z" transform="translate(-243.01 -71.13)"/>
        <path class="cls-2" d="M759.62,407.72s0,0,0,0S759.7,407.73,759.62,407.72Z" transform="translate(-243.01 -71.13)"/>
        <path class="cls-2" d="M828.07,342.15a.79.79,0,0,0,0,.09l-.08-.07Z" transform="translate(-243.01 -71.13)"/>
      </g>
    </g>
  </g>
  <path class="cls-2" d="M463.93,243.6c-4.83,4,4,13.45,7.66,5.8a4.59,4.59,0,0,0-.87-5.33,5.81,5.81,0,0,0-3.34-1.36A4.51,4.51,0,0,0,463.93,243.6Z" transform="translate(-243.01 -71.13)"/>
  <path class="cls-2" d="M494.14,291.89c-8.4,2.89,3.35,15.81,6.06,3.78C499.07,293.31,498.16,292,494.14,291.89Z" transform="translate(-243.01 -71.13)"/>
  <path class="cls-2" d="M484.39,274c-12.47-7.88-16.49-18-7.59,2.91" transform="translate(-243.01 -71.13)"/>
  <path class="cls-2" d="M548.55,265.07c-7.34,2.78,2.31,13.6,5,3.14C552.64,266.25,551.89,265.17,548.55,265.07Z" transform="translate(-243.01 -71.13)"/>
  <path class="cls-2" d="M664.94,531c4.15,3.83-6.58,4.19-3.66-.35C662.65,531.3,662.91,530.12,664.94,531Z" transform="translate(-243.01 -71.13)"/>
  <path class="cls-2" d="M649.72,540.44c4.15,3.82-6.58,4.19-3.66-.35C647.42,540.75,647.69,539.57,649.72,540.44Z" transform="translate(-243.01 -71.13)"/>
  <path class="cls-2" d="M685.33,527.6c4.14,3.82-6.58,4.19-3.67-.36C683,527.91,683.29,526.73,685.33,527.6Z" transform="translate(-243.01 -71.13)"/>
  <g>
    <g>
      <path class="cls-7" d="M853.26,310.77a6,6,0,0,1-1.15-2.42c5.38-9,24.49-17.58,43-21.57-15.55-5.58-44.64,15.41-46.26,20.89-1.94-1.75-3.87-4.13-6.43-5.95C799.79,271.49,765,291,764.63,290.85c19.7-3.39,40.15-.87,28.81,15.48-5,7.25-34.4,53.86-39.37,62.08-1.57-2.11-4.35-16.54-11.74-29.85-3.56-6.42,4-25,3-24.48-.91,1.4-9.91,19-5.35,27.39,11.59,21.28,10,28.89,10.67,31.42-5,8.38-4.61,8.53-7.73,13.06-4.53,6.58-5.38,4.33-6.4,4.26-2.54-1.89-16.68-3.15-26.27-6.95L618.46,360.5c15.56,4.41,65.81,19.7,65.82,19.7,14.51,4.63,53.68,15.72,53.85,14.27V395c1.22,2.17,7.44,11.26,9.32,12.79.06,4.66-2.68,16.7-11.2,21.94-8.55,4.64-16.21,7.27-18.51,8.42l-.85-6.23c.05-.15-.21-.85-.21-1.09a31.4,31.4,0,0,0-9.3-16.38h0s0,0,0,0a22.69,22.69,0,0,0-6.81-6.22c-2.84-2.85-79.76-43.31-82.11-47.71-15.85-3.66-35.16-22.25-37.68-23.71,3.33-3.89,4.62-9,2.23-15.44-21.41,5.47-35.23,9.27-50,2.58-8.06-1.09,33.88-27.84,29-35.14a6.23,6.23,0,0,0,3.07-.19c12.58-1.17,8.31-19.54,5.29-27v.29c-8.16-3-6.07-1.71-11.51-2.31l-2.2-3.07-4.54-7.15s.06-.13,0-.29c-.17-.13-.33-.28-.49-.42L543,235.2c.55-.15,3.74,2.16,4.1,2.34l.06,0a3.29,3.29,0,0,0,2.73.29c23.81-12.33,22.67-28.49,32.89-31.4l.26,0-.22-.07,9-10.46a21.13,21.13,0,0,0,2.09-.79c3.75-5,4.69-14.2-.69-18.88a14.85,14.85,0,0,0-8.89-5.21,23,23,0,0,0-4.2.12,3.33,3.33,0,0,0-.49-.29c2-4.64,5.83-21,4.56-24.43l-.46-21.11c-3.54-9.49-47-32.48-44.9-31.49-2.27-1.11-3.72-3.16-4.94-4,2.31-1.66,10.18-9.11,8.47-10.12A3.41,3.41,0,0,0,541.3,79c-1-1.08-3.82-3.44-9.64-7.82-.43.18-12,3.87-15.65,4.83-1.7-1.43-6.36-4.65-14.25-4.41-2.88.09-2.33,4.38-5.52,4-11.12-1.36-16.24,2.15-19.19,5.84-.47.45-.42,2.51-.58,2.28.53,8.15-6,8-9.23,11h0c-9.94.85-100.23,5.21-100.27,5.35-6.49,12.66-18.21,11.89-18.21,11.89,4.07,8.67-8.4,14.41-9.69,16.35-.1.16-1.4,11.13,12.23,16.18,16.2,8.44,18.65,12.21,18.27,12.32,1.26-.31,8.42-3.67,13.88-4.59,15.59-2.63,17.47.62,17.54.6s19.73-19.14,24.15-20.41c-.09-.17,39.85-26.56,56.48-29.92-.17,1.15,11.28,9.21,14.27,9.25a6.4,6.4,0,0,0,2,.33l.39,0c3.8-2.69,10.5-5,14-4.41l1,.23c13.4,3.4,24.61,25.56,31.75,32.6a16.26,16.26,0,0,1-5.27,4.23c-2.32,1-4,1.73-5.17,2.32a3.38,3.38,0,0,1-3.8-.58l-.48-.52c-2.72-3.19-6.75-7.1-10.1-6.67a20.68,20.68,0,0,0-4.88,2c-5.95,3.15-9.58,11.87-8.77,12.35-.67,1.6-.31,5.34-.21,5.51-1.76,1.13-10.15,5.27-10.68,5.76-.33-.06-22.78.25-24.48,1.22-.46.21-2.59.78-3,1.51l0,0c-3.89,3.68-2.27,12.72-2.06,12.65v.05c-.37,6.22,8.7,11.16,8.7,11.16s4.94,2.46,15,2.16c26.17-.77,20.4.26,17.84,5.3-2.33,3.12-6.75,13-7.4,13.71-.28.64-1.55,2.34-1.64,2.65-2.54,1.39-92.35-16.37-94.8-14.22-1.64-.57-1.05,2.42.62,7.08l0,0c-.54.49,12.22,28.33,14,33.09-5.7-.41-20.41,6-22.6,7.75a12.45,12.45,0,0,0-3.65,5.44c-2.5,11.38,10.29,17,15.74,18.51a89.73,89.73,0,0,0,18.62,3c1.5,5,16.73,41.67,19.33,44.86,2.11,5,8.17.91,15.44-5.43,12-6.16,24-1.87,30.95-4.32,4.88-1.26,14.38-5.06,24.65-9.42.69,1.83,9.89,20.06,10.14,20.54a53.4,53.4,0,0,1-4.92,2.72c-10.33,7.55-23.48,13.55-33.47,17.92,2.82-2.83,2.93-6,2.21-9-.21-1.17-3.76-6.75-8.9-6.69-9.13,16.8-35.65-.09-32.08,8.3-.86.17,5,5.9,11.92,12.7-2.36,2.19-7.26,9.44-12.32,16.16,0,0,0,0,0,0l0,.06h0c-10.17,13.5-22.06,32.06-19.94,34,.07,1.66,1.65,2.62,1,5,1.52-5.26,40.28-16.41,59.86-16.65,10.81-.13,31.28.66,41.59,3.66,60.81,10.78,82.56,77.08,79.62,79.07-3.41,3.4-23.58,22.77-58.09,36.35-14.36,5.65-34.15,6.34-46.38,6.62C470.59,513,400.6,501.27,365.33,495c-14.89-40.44,11.8-48.39,13.71-53.48,1.33-6.41-14.25,2.35-20.37,17.93C351.83,476.83,369,522,370.61,528c-.16.26,2.32,5.76,2.61,5.73.35.54,0-9.13.41-9.6,16.22,2.82,77.68,10.52,110.19,13.24a2.4,2.4,0,0,0,1.38.11,114.67,114.67,0,0,0,14.13.57c3.72-.26,46.81-1.77,63.46-8.14,17.56-6.72,38.14-15.58,46.38-22.75-8,22.58-23.55,57.79-25.43,67.71-.79,2.54-1.61,5.43-2.4,8.51-3.35,13.11-6.78,36.89-7,37.18-3.24,3.54-24.08,26.56-50.11,42.48-13.19,8.07-35,13.16-40.33,14.81-12.93,4-27.52,4.74-33.18,13.21l1.49.35c12.57.17,48.75-7.13,81.81-27.73,16.24-9.94,43.4-40.55,43.24-40.46,1.39-3.58,9.69-51.65,15.63-61.77,1.77-.95,4.56,1,4.48,1-.2,7.94-6.62,26.18-.41,35.71l.31.48c3.41-4,14.57-18.59,16.51-20.43a2.91,2.91,0,0,0,1.67.55c11.61,1.35,23,2.21,43.23-1.49.24,0,10.71-3.19,10.95-3.31,11.05-3.67,55.91-26.31,63.72-34.55-.24,7.43,12.36,15.9,22.91,16.08,7.26-.76,11.07-2.77,20.39-8.15,1.14-.43,34.52-24.46,43.82-49.94a69,69,0,0,0,5.27-11.72c-.3,2,15.3,55,14.77,59.62-10.25,13.52-34.9,25.76-35,26.56-2.18.44-4.88,24.78-4.88,24.78a6.17,6.17,0,0,1,.1.76c0,6.91,5.77,15.58,12.14,16.53a32.49,32.49,0,0,0,12.29-2.37c6.52-4.12,10.4-6.89,13.71-10.89s3.7-6.44,5-10.4c1.86-5.62,5.63-23,5.63-23,.19-1,6.13-14.79,8.21-23.11.94-5.6,2-13.71-3.63-24.21l-1.29-3.42c-7.73-34.28,1.48-47.58-2.86-71.12-.2-3.29-2.37-8.86-4.23-11.87-4.42-8.24-12.87-7.27-21.62-6.8-1,0-9.53.66-9.92,1.14-4.23,1.66-3.15,7.42-4.86,11.23-.18.4-15.24,27.81-32.48,31.29-.66-.19.74-17.68.16-21.45,0-.07-1.38-16.11-3.82-21,3.65.42,9.26,1,11.47-2.55L788,412.22c11.13-20.3,36-40.71,43.65-53.27,4.63.53,10.1-1.16,13.17-7.46,2-5.89-.06-12.59,1.92-20.13,1.55,3.12,3.91,6.3,8.69,7.2-7.2-8-6.85-10-5.61-14.24,3,14,7.43-.88,4-5.54,4.31,1.42,13.87,9.15,14.66,8.55,1.33-1-7.47-7.26-13.55-13.22,4,2.46,11.91,3.59,11.91,3.59-17-8.37,11.28-16.24,13-18.48C871.56,303.81,857.85,302.59,853.26,310.77Zm-423.35,86c-.12-.13,0-.38.51-.8A5.5,5.5,0,0,0,429.91,396.8Zm408.56-94.74c-2.08,1.24-6.24,4.38-8.69,5.77-3.26-2.07-6.82-4.28-10.52-6.48,2.44-1.66,6.42-3.87,8.81-5.15C831.71,297.06,835.42,299.65,838.47,302.06Zm-27-13a44.28,44.28,0,0,1,15.2,6c-2.79,1.14-6.57,3.93-9,5.37-2.84-1.68-8.59-3-11.48-4.61C807.43,293.74,807.81,291.61,811.47,289Zm-9.05,9c1.13,1.5,10.55,5.15,11.51,5.22-.54.53-9.75,11.26-12.34,15-3.17-.62-9-2.88-10.89-3.35C793.37,311.33,797.83,304.56,802.42,298Zm-1.72,21.66c-1.63,2.39-5.64,7.86-7.45,10.57C791.19,319.86,794,321,800.7,319.69Zm-10.83-3.57c.65,3.1,3.36,11.89-9.3,14A140.83,140.83,0,0,1,789.87,316.12Zm-10.38,16.1c2.71.48,9.49-.07,12.91-.31-3.65,5.49-7.54,11.41-11.44,17.4-4-.68-9-1.75-10.9-2Zm.56,18.47c-1.78,2.74-4,6.41-5.78,9.13C773.85,353.44,768.53,352.09,780.05,350.69Zm-10.5-2.21c.63,3.54,4.59,10.32-7.22,11.42Zm-8.41,13.06c2.7.69,9.51-.32,12-.26l-6.45,10-.1-.1-.29.39.23,0-6.3,9.8c-3.53-.7-7.88-2.33-9.74-2.65Zm-2,21.5c-1.57,2.44-4.22,7.78-5.54,9.84C753.94,388,750.27,383.43,759.17,383Zm-9.49-3c.73,3.45,6.79,11.26-7.22,12.11ZM742,395.19l.06-.12c2.55.51,7-.16,9.54-.23-1.76,2.75-3.07,4.77-3.77,5.85A25.36,25.36,0,0,0,742,395.19ZM749,415c0-.23.31-3.21.51-4,1.51,2.29,8.11,11.07,10.23,14.14-2.8-.94-10-4.4-12.57-5.09A25.72,25.72,0,0,0,749,415Zm2-4.58c2,.48,5.28.72,7.63,1.18a43,43,0,0,0,.86,8.64A91.73,91.73,0,0,0,751,410.4Zm8.41,16.71c-.16,1.34-4.64,4.56-6,5.72-1.7-2.62-6.45-10.44-5.67-10.8C749.12,421.4,759.36,426.27,759.44,427.11ZM742.9,428l0,0a.3.3,0,0,1,0-.1,9.82,9.82,0,0,0,2.24-3.49,11.15,11.15,0,0,1,.44-1.12c1,2.26,4.25,6.75,5.29,9.19-2.37-.69-7.51-2.9-9.18-3.39C742.17,428.73,742.54,428.36,742.9,428Zm-2,2.67,11.22,4.18c-2.33,2-9.15,6.31-11.33,8.06A61.27,61.27,0,0,0,740.89,430.65Zm-2.38.43a30,30,0,0,1,.64,8.57c-.88,7.18,1.68,3.58-9.94-3.31C729.67,436.18,738.14,431.33,738.51,431.08Zm-1.12,14c-3.61,1.78-11.37,7.26-17.39,6.08,1-1.05,4.07-8.35,7.47-13.15C729.37,437.24,735.6,444.08,737.39,445.11ZM726,437.19a61.07,61.07,0,0,0-6.69,12.24L718,440.88C719.25,439.9,722.31,438.81,726,437.19Zm-16.2,80.4c-5.19.53-27.14,2.57-31.72,3.25.82-2,3.68-12.35,3.13-13.47.91-.94,4.39-3.29,5.92-5.78,1.11-2.25,3.48-5.24,3.2-10.81,3.56-4.84,19.13-31.62,25.23-42.55C722.81,474,713.69,505.44,709.78,517.59Zm-.74,3.26c-.36,1.1-5.2,16.26-6.67,18.67-1.26-.85-3.57-15.52-4.61-17.4C699,522,706.71,521.61,709,520.85Zm-68.92,22.42c.08,0,.16-.09.24-.12.64,2.17,3.78,4.77,6.63,6.15-2.32.14-4.67.24-7,.26C640.07,548.6,638.64,544,640.12,543.27Zm17.32-58.52c9,7.31,20.14,20.51,20.63,21.14.43,6.71-2.53,11.53-5.18,15.7-11,2.82-1.62-23.34-22.67-36.5-7.35-3.78-25.39-5.94-25.28,10.41-2-1.65-3.23-4.51-4.1-8,5-6.3,9.34-8.17,13.33-9.35C638.79,475.94,654.45,481.65,657.44,484.75Zm4-27.75c.24.07,23.45,30.93,23.46,31s4.51,7.59-3,14.06c-.9,3.42-22.08-22.88-33.29-24.26C637.78,472.37,652.44,458,661.44,457Zm-29.22,59.86c.88.51-15-42.72,16.62-28.31,7.9,3.91,15.51,23.62,14.09,28.66-6,1.52-15.59,22.29-23.49,20.79-.76-3-3.53-11-4.91-13-2.12-3-3.44-3.7-5.51-5.76C630.25,518.68,631.27,519,632.22,516.86Zm9.68,24.5c4-2.12,8.88-6.56,12.74-9.94-.38,1.52-.91,5.71-1.34,6.94-1.1,3.19-2.46,8.83-3.82,9.6C648.62,548.45,643.05,543.59,641.9,541.36Zm14.47-8c1.64,4.61,4.92,12.08,6.56,14.11-3.42.55-7,1-10.63,1.38C654.33,545.72,655.42,532.06,656.37,533.37Zm-.07-3.73c2.42-4.21,11.38-3.6,15.09-5.16,0,.24-.39,3.08-.32,3.37-2.24,7.18-5.41,16.86-6.55,17.08C663.07,545.21,659.54,535.32,656.3,529.64Zm14.14,7.51c.89-2.86,2.57-8.65,3-11.26,3.29,4.65,10.38,16.29,14.41,17.89-5.63,1.29-13.39,1.67-21.2,3.07C667.63,544.16,669.68,539.58,670.44,537.15Zm4.33-13c2.59-.15,12.76-1.39,18.6-2,0,.08-3.49,15.31-4.63,18.21C687.87,542.55,674.47,524.41,674.77,524.1ZM637.89,379.31c3.74,1.07,58.35,28,63.89,33.82,5.86,5.61,10.11,13.21,11.29,18.2,3.31,13.92-13.33,36.69-17,43.22-3.64,6-6.58,11.09-7.5,13.21-2.1-3.62-20.6-25.72-23.92-31.19.4-.32.36-2.28.66-3,.68.16,19.86,6.56,18.36,1-2.6.42-17.34-4.08-18.06-4.28.06-1,2.13-4.79,3.11-6.3,0,.37,22.55,5,18.37.52-5-1.77-17.28-2.43-17-4.73h0c1.44-.9,19.06-.73,15.81-3.45-2.58-1.28-25.77,5.94-69.22-2.08,7.73-9.38,17.58-23,20.63-33C637.39,401.12,641.07,386.25,637.89,379.31Zm-61.26-54c8.54,7.41-5.22,22.79-6.41,8.53C569.82,328.94,574.11,324.63,576.63,325.31Zm-8.58,11.28a6.41,6.41,0,0,1-11.94,3.87C554,327.72,568.67,326.19,568.05,336.59Zm-15.75,2.59c-1.18,1.9-1.39,2.94-3.14,3.44a5.38,5.38,0,0,1-4.76-.47C536.92,327.09,560.06,326.67,552.3,339.18Zm-10.13,7.06a28,28,0,0,0,9.75,1.1,2.46,2.46,0,0,0,.89.33c1.31.13,21.23,15.75,23.9,17.5-2.34,4.42-8,4.28-13.75,2.05-24.42-15.29-54.07-7.18-69.56,7.44l-.46-.06c-2.41-1.2-5.64-5.33-1.13-9.93.78-.5,11.79-12.67,14.63-13.67,1.58-1,17.19-3.7,35.58-4.78Zm-5.93-.79a184.8,184.8,0,0,0-21.44,2.18c.72-1.93,2.92-5,5.35-8.31C519.65,341.56,523.12,343.53,536.24,345.45Zm-7.89-19.05c-.13-.3-.38-.36-.71-.23,1.1-.54,1.84-.8,2.13-.66,1.59,4.46-4.21,8-7.52,11C525.69,331.94,528.86,327.63,528.35,326.4Zm12.28,7.36a10.06,10.06,0,0,1-6.4,8.34C520.17,338.51,539.06,318.24,540.63,333.76ZM570.3,262c3.4,35.72-10.45,21.93-11.59,20.16-.08-4.58.14-11.68.28-15.38C561.89,265.07,562.69,260.36,570.3,262Zm13.34-60.66a1,1,0,0,1-.5.61c-2.13,1.31-6,5.07-7.31,4.51-.21-.09-1.77-.7-1.83-.48-5.33,20.55-20,28.19-24.08,30.24-.26.13-1.39-1.6-1.35-2.48a75.71,75.71,0,0,1,0-8.52v0c0-.36.36-.95,0,0l14.92-25.47.11-.11h0l5.52-9.43.87-.92a.44.44,0,0,1,.51-.14c.87.41,4.22-1.42,7.18-.83C585,189.68,583.84,200.36,583.64,201.29ZM593.45,181c1.31,2.38,2.29,5,1.31,9.78-.17.86-1.08,3.47-5,3.5-.45,0-4.64-7-11.23-8.67-2.74-.69-8.64-.27-9.91,2a.5.5,0,0,1-.84,0l0,0a.49.49,0,0,1-.1-.59c.76-1.27,3-5.41,3-5.56,2.67-6.31,6.14-6.61,6.29-6.73C584.91,171.78,591.46,177.36,593.45,181ZM531.4,74.11c.28,0,5.09,5.9,7,7.39a1.12,1.12,0,0,0-.12.53,25.29,25.29,0,0,1-7.44,5.49l0,0-.08,0c-1.56-2.07-7.51-7.37-10-9.29,1.54-.31,7.26-3.74,10.62-4ZM466,96.93a5.75,5.75,0,0,0,3,1.26l0,0c-25.29,16.12-61.92,3.63-64.4,3.5a.42.42,0,0,0-.13,0c0-.08-.42-1-.44-1.11C417.24,100.06,455,97.32,466,96.93ZM439,110.76a28.29,28.29,0,0,0-4,.9.62.62,0,0,1,0-.16c0,.07,0,.12,0,.18-8,2.23-20.61,8.21-24.63,7.88-4.39-6-5.47-11.73-5.12-15.35C415.64,105.27,432.93,108.78,439,110.76ZM386.89,101c3.44-.32,5.88-.13,14.78-.78,2.29.27,1.36,5.66.24,8-5.07,7.63-19.32.44-31-6.48C374.28,101.58,385.34,101.14,386.89,101ZM342.05,129c11.34-4.14,10.4-14.41,10.4-14.41s9.77-.34,16.19-11.07c-.26,5.18-2.75,20.41-17.84,25.38-1.4.67-6.69.9-9,.33A1.9,1.9,0,0,0,342.05,129Zm-.39.32.11-.08c6.83,2.25,24.07,3.48,25.34,20.81C342,139.45,343.18,130.79,341.66,129.27Zm31.23-24.05c.59.49,1,2.23,1.63,3.41,4.76,10.35,12.55,16.21,11.48,21-1.46,6.55-9.17,20.6-14,21.55C358.5,132,367.87,113.34,372.89,105.22Zm29.78,41.89c-2.89,3.25-19.55.8-24.74,2.78a35.57,35.57,0,0,0,4-4.44,65.57,65.57,0,0,0,7-16.89c-3.31-10.32-8.5-15.47-12.67-21.11,3.42,1.57,9.4,5.78,13.22,6.55,0,.14,3.56,1,3.34.67,4.24.56,7.84-1.41,10.11-2.56,2.39,8.23,9,19.75,12.78,23.11C410.6,137.28,402.68,147.09,402.67,147.11Zm14.2-14.31a8.13,8.13,0,0,0-.46-.77,92.66,92.66,0,0,1-4.71-8.91c6.92-2,68-24.45,76.27-29.67.46.68,1,1.42,1.67,2.25C479.39,98.1,417.45,132.66,416.87,132.8ZM500,108.25a8.89,8.89,0,0,1-6.39-.68,23.18,23.18,0,0,1-8.8-6.2c3.88-1.26,8.09-3.16,9.34-3.7,2.93,1.92,10.87,5.68,11.88,5.81C508.66,104.49,503.72,106.59,500,108.25Zm10.17-4.92c-3.06-3.41-10.39-6.67-13.95-7.66-3.62-5.09-13.59-10.88-8.9-3.22-2.44.29-7.82,1.57-17.14,4.17,10-6.35,9.73-9.3,8.78-13.19,10.15-10.13,15.77-2.73,21.48-5.17.58-.12,1.58-4.18,2-4.22,4.34-1.43,14.6,5.47,14.59,5.39,4.41,2,20.85,17,21,17.06,14.26,3.67,43.61,29.17,43.54,29.25,0,1.94-.28,19.43.69,21.67-.44-.25-14.37-3.15-24.4-5.2a.29.29,0,0,0,0-.09h0l-1.52-.21c-2.7-.55-5-1-6.54-1.32C543.42,130,524.2,107.24,510.17,103.33Zm3.53,41.42a10.5,10.5,0,0,1,8.11-3.21s4.54,1.24,7.94,6.46c2.81,4.12,17.25-5.46,18.47-5.44-.14.19,33.47,7.14,33.22,8.77,0,0-4.67,17.25-5,18.12-5.24-.13-13.86,1.86-16.38,3.78-.73-2.23-8-10-8.38-9-1.76-.2-19.21,3.79-20.32,4.09a23.61,23.61,0,0,1-11.59-.52c-8.71-4.63-8-6.13-8.8-6.87a13.45,13.45,0,0,1-2.44-7C508.72,153.46,509.83,148.13,513.7,144.75Zm-16.58,46.68c-38.84.63-30.23-23.93-21.35-24.52,9.24-1.44,15.4.61,19.06-.41,2.53,2.17,3.54,4.44,4.42,4.69-18.5-.57-13.94,11.21,2.77.77,0,0,2.46-1.63,3-2.05-6.8-2.62-6-4.69-4.93-5.91a.59.59,0,0,0,.16.15h0c3,.19,5.53-1,5.54-.83.34.81,6.43,5,7.92,5.39l.12,0c3.68,1.06,10.13,1.75,12.5,6.85h-.05a20.94,20.94,0,0,0-2,2.79C509.92,190.83,496.84,191.08,497.12,191.43Zm6.25,21.68c9.09-18.65,26.88-39.36,27.93-41.35,3.86.43,15.29-2.5,20.88-4.82,1.29,3,4.51,7.39,8,9.24a10,10,0,0,0,2.27,1A.51.51,0,0,0,563,177c7.72-9.13,7.48-2,6.52.94h0c-5.48,8.69-33.43,65.59-33.5,65.71-1.52,2,2.44,15.22,3,18.52.58,3.61-2.07,26.07-29.13,24.12-1.1-.08-15.2-2.17-19-18.05-.25-1,.52-18.26,1.34-23.11C493.93,234.63,499.3,218.7,503.37,213.11Zm-69-6c1.89,0,16.55.33,62.55,11.11.65.41-6.59,3-8.07,3.78-.66.66-35.8,16.33-43.26,20.66C445.44,242.33,434,215.67,434.41,207.15Zm-29.7-5.29c9.43,3.62,20.78,1.72,25.86,4.83-.41,0,6.9,26.85,12.17,35.87-1.63,0-22-1.51-22-1.56C421.85,240.77,407,206.81,404.71,201.86Zm-3.38,46.81a51.26,51.26,0,0,1,18.78-5.11c14,1.89,16,2.48,25.82,8,9.53,5.38,20.12,20,22.51,23.63-24.88-3.11-58.88.89-70.17-10.38-10.41-10.39,2.75-16.07,3.06-16.17m56.95,66.5C455,319.81,450,321,447.5,320.7c-4.78-11.76-18-44.56-18.15-44.73,28.33-3,40.46,2.68,41.32,3,.21.41,12,17.66,19.26,30.89C489.42,310.12,467.45,308.16,458.28,315.17Zm34.35-5.71c-1.62-.71-25.29-40.21-26.36-40.62-2.73-3.22-17.83-21.25-27.46-23.25.06-.17,4.47,1.37,12.91-2.26,9.32-3.91,42.88-21.38,44.56-22.22-1.08,1.27-11.61,24.6-8.38,49.78.66,5.07,6,10,6.27,10.43,0-.11,7.66,10.21,23.77,8.56-.05,0-.06,0-.05,0,7.94-1.51,15-6.11,18.73-11.32,2-2.72,6-10.6,5.81-15.7-.08-2.2-1.8-18.81-1.09-24.2.22.27,1,1.27,1.36,1.61,1.34.9,3.79,4.55,6.39,8.85h0c4.69,7.79,9.86,17.75,9.81,17.71l0,0C556.8,286.86,533.25,290.56,492.63,309.46Zm26.88-9.09c4.34-1.87,10.16-4.41,14.31-6.23.15-.05,19.45-8.58,21.66-9.47a25.1,25.1,0,0,1,3.7,2.91c-.77,8.59-19,21.87-29.64,32.57C529.53,320.14,519.78,300.52,519.51,300.37Zm7.94,25.9c-3.38,1.87-14.11,19.9-13.21,21.45a41.81,41.81,0,0,0-8.93,2.23c-.95.07-3.47,1.89-8.23,7.09-2,1.75-4.14,3.77-6,5.72-2-.2-4.9-7-5.49-9.06-.89-3.16-.86-5.23-1.38-5.44C498.29,345.4,520.17,330,527.45,326.27Zm-54.86,10.36c4-.57,10.4-5.48,11.15-6.24,1,1.46,10.12,6.31-2.3,15.8C477.3,345,467.65,340.22,472.59,336.63Zm-21.79-1a2.68,2.68,0,0,0-.8-.33c9.13-2.2,20.58,5.79,24.52,10.68,2.12,2.37,5,3.19,9.36,2.36-.43.26-.46-2.12-1.73-.36-1.59,2.2,3,8.69,4.22,13.71.46,1.88-.44,3.78-.45,5.2-1.7-.17-3.6-2.53-5.4-4.54C472.86,353.78,459.59,340.44,450.8,335.61ZM485.47,370h0a2.24,2.24,0,0,0,1.19-.35,6.65,6.65,0,0,0,.84-.55c-.4,2.6.55,6,2.13,7a.68.68,0,0,0,.12.13,5.15,5.15,0,0,0,3.19,1.32A5.73,5.73,0,0,0,495.8,376a92.74,92.74,0,0,1,8.2-6.11c-1.71,3.94-4,9.17-4.85,12.76-1.26-.37-14,.74-17.64.95-24.21,1.4-33.33,7.29-37.92,8.28-3.46.49,29.38-27.35,32.44-30.06C476,361.86,484.75,370,485.47,370Zm88.74,34.53c.06,0-24.71-19.71-58.56-20.59.1,0-5.13-.52-11.47-.64-.65-.24-2.43.09-3.42-.21,1.76-4.59,5.26-11.29,6.63-15.24,32.31-19,50.06,4.8,59.25,2.92,10.19,1.44,13.79-4.08,13.92-4.78-.59-2.55-7.51-8.24-10.94-10.09-17.86-13.23,7.44-8.91,10.94-18.81,2.12,6.63,49.82,38.06,53.75,41.43,2,9.88-1.28,23.2-3.11,27.54-4.8,11.37-22.55,28.59-25.91,34.65C601.77,434.29,585.37,413.4,574.21,404.49Zm33.63,40.43c2.25-2.44,10.16-5.45,15.25-6.09,7.3,1.87,31.8,3.84,41.36,2.65-2.7,4.45-4.74,8.8-4.81,10.41-10.4,4.49-17.55,18.41-23.12,23.73-4.9.33-15.13,3.76-17.89,8.11-1.28-12.57-1.36-13.25-7-30.66A67.36,67.36,0,0,0,607.84,444.92ZM366.22,498.33,383.54,502c-1.47,2.14-9.09,14.7-10.58,17.23C373.1,516.88,366.89,504,366.22,498.33Zm9.51,22.86a5.16,5.16,0,0,0-.92-.34c-.31-1.75,8.87-14.16,10.23-17.55.67-1.69,8.83,16.81,12.35,21.26l-21.66-3.37S375.74,521.26,375.73,521.19Zm11-18.77L407,505.37c-2.1,3.21-6.33,14.2-7.9,17.3C395.44,519.07,390.08,506.12,386.77,502.42Zm14.06,22.75c2.3-3.82,8.81-19.73,9.67-19.22,1.67,1,8.64,17,12.67,22ZM414,506.66l20,3.06c-2.15,3.33-4.84,13.2-6.79,16.9C423.19,522.5,417.85,510.89,414,506.66Zm15.82,22.41c.68-2.44,7.19-20.48,7.19-17.48,0,.39,11.47,14.62,16.44,20.23Zm9.23-18.58,24,3.16c-2.21,2.86-5.43,11.84-7.9,15.2C450.84,525.65,443.41,514.31,439.08,510.49Zm18.18,21.84c1.25-2.79,7.18-14.33,8.15-16.74.79-2,13,15,18.37,19Zm27.18-1.85c-4.73-2.46-12.33-12.86-16.24-16.27l21.36,1.46C488,518.08,486.25,527.5,484.44,530.48Zm2.39,4.3c1.11-3.39,4.15-15.31,5-17.48.74-1.84,13.59,12.7,17.15,17.7ZM496.15,516l21.26-.51c-.39.77-6.66,15.64-7.34,16.29C505.14,529,500.22,519.22,496.15,516ZM512,534.56c.19-.45,6.8-17.49,8.3-17,2.5.75,12.89,13.88,15.48,15Zm10.74-19.34c1.15-.16,15-1.87,21.26-3.18-.14.34-5.28,12.58-6.81,17.48C533.26,528,525.06,517.22,522.74,515.22Zm34.15,13.26-16.52,3.26c3.69-8.21,5.44-19.29,7.3-18.74,2.32.69,11.78,11,14.85,13C561.62,526.26,557.64,528.43,556.89,528.48Zm-7.22-18.26c.71-.21,16.39-6.08,22.44-9.22-.18.43-.75,3.35-.92,3.85-.86,2.41-3.26,13.15-4.75,19.19C562.52,522.08,552,512.2,549.67,510.22Zm19.89,13.37c3.33-8.2,3.65-22,5.44-21.48,2.57.77,11,12.6,13.52,13.41C583.33,518.45,574.35,521.2,569.56,523.59Zm22.44-9.7c-3.84-2.53-11.22-10.57-12.52-11.73-.35-.3-3.47-2.55-3.81-2.83,2.61-.59,5.83-3.55,10.89-6.88.61-.41,5.9-4,6.77-4.67C592.82,492.7,592.16,511.06,592,513.89Zm2.22-1.26c1.47-5.16,2-25.67,3-27.56.87.49,5.59,7.67,6.24,8.43,1.72,2,5,6.51,6.27,8.39C608.77,505.57,597.11,510.8,594.22,512.63Zm5.63-29.48c3.19-2.78,12.09-11.28,13.56-10.45,2.8,1.6-1.48,27.26-1.48,27.26C611,498.18,600.59,484.51,599.85,483.15Zm14.53,22.75c2.11-7.48,1.82-17.75,2.17-19.64,16.43,26.18,8.79,29.56,7.26,32.22-3.27,2-11.19,7.38-14.61,10C606.53,523.78,612.16,513.78,614.38,505.9Zm-10.32,25c6.69,5.35.74,8,4.65,17.71C601.36,549.19,596.93,539.89,604.06,530.91ZM601.2,560c-.27.15-.12.15-.47.18a6.51,6.51,0,0,1-1.35-1.13C585,543.52,616.61,547.73,601.2,560Zm-1.34,29.79c-.34.38-1.19-.34-1.47.09-1.72-19.12,11.73-38,17.72-45.39-2.4.87-4-3.65-6.57-12.62,3.86-1.77,12.69-7.39,15.54-10.64,1.15,1.11,3.69,1.93,6.12,4.68C650.37,547.67,601.65,584.15,599.86,589.81Zm42-13.42c-10.32.31-21.3-.06-25.61-.89,5.15-5.47,20.79-22.67,20.9-23.09,6,.57,56.59-6.42,62.42-7C693.75,567.73,652.14,576.09,641.9,576.39Zm48.41-33,5.62-19.73c.87,3.71,2.82,14.23,4.83,19C699.07,542.24,694.78,542.43,690.31,543.4Zm130.58,66a21.37,21.37,0,0,1-6.56.27c-.42.53-5.9-3.74-6.24-4.07-5.54-9.49-3.51-12.53-3.06-18.35.36-2.36,2.68-11.4,4.36-12.55.73-.52,1.12-1,1.65-1l21.45-13.56c.36-.19.7,23.58-8.79,43.36C823.55,603.54,822.15,607.74,820.89,609.37ZM776.43,475.92c10.62-5.1,34.56-19.93,37.87-42.66,0-1,.41-2.77,3.38-3.12,7.31-.33,14.51-2.08,19.77-.3,3.53,1.2,14.59,5,8.33,59.38a68.92,68.92,0,0,0,.11,9.78c.78,3.37,6,23.63,8,28.73,1.19,3.9,3.82,12.23-8.55,45.18-3.09,12.1-3.41,20.54-12.56,28.45-2.62,2.27-6.87,3.92-7.89,4.48,3.24-3.67,5.41-11.56,7.7-21.14-.11-1.34,1.74-11.3,3.27-15.76,1.47-6.11,8.57-23.38,8.35-24.27,1.44-4-15.55-59.49-15.55-59.49-.38-.69-2.16-14.23,8.51-22.3a2.46,2.46,0,0,0-1,.12l-.39.1c-2.82.81-10,6.66-15.12,11.88-7.14,7.65-11.33,15.3-23.7,25.36a152.71,152.71,0,0,1-25.35,16.18c-2.36,1.13,2.23,1.32.51,2.63,2-.73,7.7-3.42,9.68-4.25,7.9-3.31,16.82-10.27,23.19-16.73,10-10.16,18.94-18.39,19.62-19.36-.09.16-3.77,12.27-6.63,17.58a166.2,166.2,0,0,1-11.78,18.66,113.43,113.43,0,0,1-35.52,30.51c-21.56,12-36.24-7.69-36.27-7.9-1.89-.29-32.7,15.32-36.3,18.74,3-6.84,15.94-30.46,21.69-66.47,3.32-20.73,1.67-32.08.28-36.54,14.71-1.34,37.33-19.36,39.75-23.44.69-1.1,3-4,3.5-4.84,1.14.41,4.74,2.11,6.51,2.35h0c2.9,9.78,7.77,50.44-4.95,73.76-2.78,7.64-11.05,11.17-11.11,11.38-.29,1.12,11.23-2.7,15-8.15C770.39,503.22,776.81,479.48,776.43,475.92Zm66.33-130.8c-.26,2-1,15.46-14.2,9.28-2.44-2.25,2.5-21,.08-15.19,0,0-3.91,14.76-2.6,16.9a4.29,4.29,0,0,0,2.56,2.11c-8.42,7.49-30.33,33.19-41.3,49.75-5.22,7.9-4.74,13.39-5,16.14-1.7,1.19-8.1,1-9.71.93-4.26-.3-8.62-3.29-8.64-3.36-.75.24-2.59-11.28-2.62-12.07,1.61-2.86,7.92-7.3,7.91-8.09-2.53-.46-8.41,4.51-10.68,6.76a57.29,57.29,0,0,1-7.56-1.67c-.26-.52-.82-2.67-1.25-3.32a2.4,2.4,0,0,0,.21-.23c2.06-2.58,20.29-34,38.11-60.13,14.08-24.23,28.44-37.12,28.53-37.13C823,303.7,847,320.87,842.76,345.12Zm.94-24.48c-.89-2.42-5.66-7.52-12.26-11.76l8.52-5.71c4.39,3.47,7.57,6.2,8.66,8.92C848,313.33,843.7,320.64,843.7,320.64Z" transform="translate(-243.01 -71.13)"/>
      <path class="cls-7" d="M375.73,521.19Z" transform="translate(-243.01 -71.13)"/>
    </g>
    <path class="cls-7" d="M789.69,366.83c4.14,5.36,3.48,3.19,2.24-2.61-3.48-3.89,1-15.15-2.76-20.58C789.08,346.84,787.85,360.87,789.69,366.83Z" transform="translate(-243.01 -71.13)"/>
  </g>
  <path d="M591.11,293c5.82-8.77,17.65-13,27.73-13.93,12.66-1.19,25.25,2.51,37.93,1.44a71.94,71.94,0,0,0,28.11-8.74c9.66-5.29,16.35-12.68,24-20.36,1.57-1.57-1.32-3.76-2.38-1.83-5.47,10-16.77,17.66-26.81,22.42-11.42,5.41-23.55,6.81-36.05,6-18-1.18-42.67-3.74-54.27,14-.72,1.09,1,2.1,1.74,1Z" transform="translate(-243.01 -71.13)"/>
  <path d="M581.44,250.78c.87,10.1,13.7,10.44,19.21,3.94,4.23-5,4.93-11.7,5.1-18,.22-8,1-15.44,3.66-23,4.45-12.66,12.5-26.5,24.75-33s27.35-9,41.2-7.71a73.7,73.7,0,0,1,46.28,22.87c1.5,1.6,4-.9,2.4-2.4-19.24-18.14-43.85-27.45-70.3-22.44-11.67,2.21-23.33,6.57-31.59,15.38s-13.94,20.25-16.93,31.83c-2,7.74-1.36,15.39-2.11,23.26-.49,5.25-2.3,11.34-7.08,14.28-4.52,2.78-12,.84-12.62-5-.14-1.24-2.08-1.27-2,0Z" transform="translate(-243.01 -71.13)"/>
  <path d="M666.55,276.69C662.77,285.54,658.88,295,652,302c-7.41,7.51-17.84,10.58-27.72,13.34-14,3.92-35.26,9.3-38.09,26.37-.18,1.11,1.41,2,2,.84,4.31-9,10.57-14.81,19.79-18.71,8.95-3.8,18.61-5.47,27.75-8.75,8-2.88,15.46-7,20.88-13.73,5.62-7,9.1-15.37,12.51-23.58.6-1.45-1.93-2.53-2.56-1.07Z" transform="translate(-243.01 -71.13)"/>
  <path d="M785.34,272.89c-22.56,13.2-39.17,35.27-52.55,57.24-11.8,19.39-13.56,44.17,2.48,61.93,1.17,1.29,3-.6,1.9-1.9-7.7-8.82-11.09-20.4-10.48-32,.59-11.44,5.34-20.71,11.33-30.2,12.63-20,27.84-40.78,48.36-53.26a1,1,0,0,0-1-1.79Z" transform="translate(-243.01 -71.13)"/>
  <path d="M755.83,255.4c21.33,19,48.64,30.6,77.48,26.57,7.41-1,15.17-2.9,21.81-6.46,7.56-4.05,12.84-14.3,9-22.47-.64-1.37-2.75-.17-2,1.19,4.54,8.83-3.87,17.38-11.47,20.56a73.24,73.24,0,0,1-21.78,5.13c-26.69,2.34-51.55-8.82-71.23-26.31-1.21-1.09-3,.7-1.79,1.79Z" transform="translate(-243.01 -71.13)"/>
  <path d="M836.6,297.48c1-9.48,13-19.22,20.89-23.15,9.33-4.65,20.74-2.12,30-7.16l-1.85-1.85c-4.21,5.57-9.28,10.33-13.81,15.61-3.2,3.74-7.29,8.39-7.66,13.47a.72.72,0,0,0,1.22.5c1.88-2,2.95-4.5,4.48-6.77a73.89,73.89,0,0,1,6.51-8.05c4-4.39,8-8.63,11.6-13.39.85-1.15-.76-2.46-1.85-1.85-10.4,5.78-23.24,2.77-33.33,9.72-7.13,4.91-17.52,13.38-17.59,22.92,0,.94,1.34.89,1.43,0Z" transform="translate(-243.01 -71.13)"/>
  <path d="M894.44,287.7c5.24,3.17,10.52,12.3,5.34,17.74-4.31,4.53-11.06,6.61-16.57,9.1-3.44,1.56-8,3.84-8.35,8.19s3.78,7.28,7.27,9c1.29.63,2.43-1.3,1.13-1.94a13.2,13.2,0,0,1-4.18-2.63c-4-4.62-1-7.12,2.18-9.17,2.88-1.83,6.18-2.94,9.23-4.43,3.91-1.9,8.89-4.3,11.39-8,4.25-6.35-1.15-15.42-6.88-18.74a.56.56,0,0,0-.56,1Z" transform="translate(-243.01 -71.13)"/>
  <path d="M846.77,329.4c2.17,6.81,9,12.72,16.2,13.27,5.57.43,10.64-2.78,16.11-2.33,6.1.5,7.39,6.84,3.76,10.9-2.92,3.26-7.75,3.88-11.83,4.3a1.12,1.12,0,0,0,0,2.23c9.7.94,17.71-.69,20.76-11,2.28-7.7-2.28-17-10.94-17.56-1.14-.08-1.31,1.64-.26,2,8.3,2.37,11.6,9.71,8.2,17.57s-10.43,7.69-17.76,6.81v2.23c5.59-.55,12.16-1.78,14.93-7.33,1.72-3.45,1.46-7.88-1.8-10.32-4.53-3.38-10.4-.61-15.2.42-9.48,2-17.26-3.07-21.07-11.6-.28-.62-1.3-.18-1.1.46Z" transform="translate(-243.01 -71.13)"/>
  <g>
    <path class="cls-8" d="M594.94,272.56a31.88,31.88,0,0,0,4.68,0,18,18,0,0,0,5.09-1,14.93,14.93,0,0,0,6-4.07,22.84,22.84,0,0,0,4-6.61,51.91,51.91,0,0,0,2.42-7.51c.67-2.63,1.24-5.39,1.78-8.26q.38-2.16.78-4.41c.26-1.6.46-3.17.65-4.75.37-3.15.68-6.34,1.12-9.55a60.47,60.47,0,0,1,1.88-9.37,18.53,18.53,0,0,1,.76-2l.2-.48.29-.56.59-1.12c.4-.75.76-1.54,1.2-2.27l1.32-2.21a54.57,54.57,0,0,1,6.3-8.27,39.1,39.1,0,0,1,17.78-11,41.44,41.44,0,0,1,10.78-1.51,64.94,64.94,0,0,1,11.37.72,54.54,54.54,0,0,1,10.77,2.83c.87.34,1.7.74,2.55,1.1.42.19.84.35,1.26.56l1.21.65c.81.45,1.64.84,2.42,1.32l2.31,1.49a23.28,23.28,0,0,1,2.24,1.59c.72.56,1.45,1.11,2.18,1.66l2,1.83a25.14,25.14,0,0,1,2,1.87,75.21,75.21,0,0,1,7.08,8.21l1.57,2.18c.52.72,1.05,1.43,1.51,2.2l2.8,4.47c1.88,3.19,3.77,6.29,5.77,9.28a78.37,78.37,0,0,0,6.5,8.51,40.38,40.38,0,0,0,8,6.89c1.41.93,2.82,1.74,4.17,2.45.68.36,1.35.71,2,1l1,.49,1.07.47,2.09.92c.7.28,1.45.49,2.16.73a30,30,0,0,0,4.3,1.07,26.71,26.71,0,0,0,8.22.06,32.63,32.63,0,0,0,6.48-1.69c3.62-1.35,6-2.44,7.47-2.9a8.17,8.17,0,0,1,1-.29l.69-.19a4.16,4.16,0,0,1,.55-.12c-2.63.78-5.54,2.57-9.24,4.23a37.25,37.25,0,0,1-6.07,2.12c-1.12.21-2.24.47-3.39.57a23.84,23.84,0,0,1-3.48.15,32.81,32.81,0,0,1-9.05-2.13c-1.32-.58-2.74-1.19-4-1.79s-2.35-1.2-3.57-1.88a43.69,43.69,0,0,1-7.17-4.94,48.86,48.86,0,0,1-6-6.19,112.82,112.82,0,0,1-8.92-13.18l-1.95-3.29-1.87-3c-1.19-2.07-2.63-3.91-4-5.85a67,67,0,0,0-9.32-10.25,51.51,51.51,0,0,0-11.17-7.68c-8-4-17.22-5.61-26.63-5.34a39.4,39.4,0,0,0-13,2.49,38.37,38.37,0,0,0-11.26,6.84,47.86,47.86,0,0,0-8.83,10.33l-1.81,3-1.65,3.1c-.31.55-.43.92-.64,1.36s-.36.94-.53,1.42c-.32,1-.62,2.08-.87,3.19-1,4.48-1.53,9.38-2.14,14.39-.15,1.26-.3,2.53-.49,3.84s-.42,2.67-.64,3.89c-.46,2.51-.94,5-1.51,7.58s-1.22,5.1-2.08,7.71a32.27,32.27,0,0,1-3.74,8,17.1,17.1,0,0,1-3.49,3.77,15.08,15.08,0,0,1-4.76,2.49A24.09,24.09,0,0,1,594.94,272.56Z" transform="translate(-243.01 -71.13)"/>
    <path class="cls-8" d="M636.59,194.85a21.56,21.56,0,0,1,1.91-1.5,38.2,38.2,0,0,1,4.65-3,40.56,40.56,0,0,1,7.5-3.13,43,43,0,0,1,10.22-1.68c7.69-.31,16.76.43,25.45,4a50.23,50.23,0,0,1,12.42,7.24,64.27,64.27,0,0,1,10.64,10.48l1.2,1.45c.4.49.75,1,1.12,1.52l2.21,3.07c1.4,2.1,2.69,4.22,4,6.37a142.92,142.92,0,0,0,8.29,12.74,44,44,0,0,0,10.39,10.35,51.69,51.69,0,0,0,5.84,3.4c.94.48,1.87.95,2.87,1.37a29,29,0,0,0,2.93,1.19,25.94,25.94,0,0,0,11.4,1.49,32.21,32.21,0,0,0,8.45-2.2l4.82-1.93c.54-.22.93-.33,1.21-.43l.41-.14c-2,.81-3.95,1.92-6.14,3a35.13,35.13,0,0,1-7.19,2.63,26.49,26.49,0,0,1-11-.69l-2.55-.84c-.87-.26-1.63-.69-2.45-1-1.67-.72-3-1.45-4.54-2.26a41.28,41.28,0,0,1-8.56-6,52.52,52.52,0,0,1-6.75-7.73c-2-2.7-3.78-5.46-5.47-8.26-.87-1.39-1.68-2.8-2.5-4.2s-1.64-2.67-2.46-4a80,80,0,0,0-11.46-14.56A54.7,54.7,0,0,0,688.59,191,54.07,54.07,0,0,0,671,186.14a75.64,75.64,0,0,0-9.29-.39,43.9,43.9,0,0,0-9,1.12,37.69,37.69,0,0,0-8.5,3.06A38.59,38.59,0,0,0,636.59,194.85Z" transform="translate(-243.01 -71.13)"/>
    <path class="cls-8" d="M589.94,266.81c.4.05,1.75.3,3.95.54a35.12,35.12,0,0,0,3.89.23,15.66,15.66,0,0,0,4.9-.68,9.93,9.93,0,0,0,2.51-1.24,11,11,0,0,0,2.22-2.11,22.12,22.12,0,0,0,3.24-6.22,105,105,0,0,0,3.87-16.55c1.06-6.09,1.36-12.83,2.66-19.85a48.74,48.74,0,0,1,1.27-5.28,26.83,26.83,0,0,1,2.21-5.14,62.68,62.68,0,0,1,6.06-9.65,46,46,0,0,1,18.42-14.77,43.46,43.46,0,0,1,11.78-3.19,66.88,66.88,0,0,1,12.25-.21,59.13,59.13,0,0,1,12.06,2,57.67,57.67,0,0,1,5.79,1.91,59.55,59.55,0,0,1,10.62,5.67c.85.51,1.6,1.18,2.4,1.76s1.6,1.16,2.33,1.82a70.55,70.55,0,0,1,8.2,8.2,90.19,90.19,0,0,1,6.72,9l2.88,4.59c.92,1.52,1.78,3,2.7,4.49,3.63,5.86,7.35,11.27,11.73,15.3a35.12,35.12,0,0,0,6.93,4.91c1.19.67,2.37,1.27,3.53,1.85s2.31,1,3.41,1.51a23.55,23.55,0,0,0,12.15,1.44,34.74,34.74,0,0,0,7.65-2.36l2.68-1.08c-3.27,1.62-6.44,3.34-10,4.25a23.67,23.67,0,0,1-11.1,0l-1.86-.62c-.6-.24-1.18-.52-1.78-.78-1.2-.51-2.33-1.07-3.44-1.66a45.88,45.88,0,0,1-6.55-4,48.11,48.11,0,0,1-10.29-11.33c-1.44-2.08-2.81-4.21-4.12-6.37s-2.54-4.37-3.88-6.46l-2-3.17c-.65-1.07-1.42-2.05-2.13-3.07s-1.4-2.06-2.2-3l-2.37-2.89a65,65,0,0,0-10.84-10.19,55.2,55.2,0,0,0-13-7.13,56.83,56.83,0,0,0-14.53-3.34c-1.24-.12-2.48-.25-3.73-.28l-1.87-.08h-1.88a53.09,53.09,0,0,0-7.46.46,43.22,43.22,0,0,0-14.15,4.69,44.83,44.83,0,0,0-11.71,9.3,60.83,60.83,0,0,0-8.6,12.31c-2.64,4.33-3.63,9.41-4.4,14.34s-1.18,10-2,14.93a140.26,140.26,0,0,1-3.17,14.67,37.27,37.27,0,0,1-2.69,6.93,12.3,12.3,0,0,1-4.85,5.24,14,14,0,0,1-7,1.34A52.92,52.92,0,0,1,589.94,266.81Z" transform="translate(-243.01 -71.13)"/>
    <path class="cls-8" d="M632.47,191.31a44.08,44.08,0,0,1,7.31-5.22,46.69,46.69,0,0,1,8.46-3.7,47.57,47.57,0,0,1,11.47-2.13c2.14-.14,4.25-.15,6.47-.09s4.52.22,6.87.5a59.81,59.81,0,0,1,14.45,3.56A58.57,58.57,0,0,1,701.31,192a72.76,72.76,0,0,1,6.17,5.22c1.86,2,3.82,3.84,5.47,6a98.59,98.59,0,0,1,9.16,13c2.58,4.35,5.14,8.56,7.91,12.32a41,41,0,0,0,9,9.36,43.2,43.2,0,0,0,5.17,3.11c.87.46,1.8.94,2.65,1.33l2.48,1.09a21.69,21.69,0,0,0,9.07,1.54,24,24,0,0,0,7-1.65c2-.75,3.61-1.46,4.79-1.91s1.82-.68,1.82-.68c-4.55,2-8.2,4.4-12.42,5.19a21.15,21.15,0,0,1-8.74-.92c-.71-.25-1.43-.45-2.13-.74l-2.09-.93c-1.39-.63-2.82-1.41-4.17-2.15a42.35,42.35,0,0,1-3.88-2.44,33.19,33.19,0,0,1-3.46-2.92,50.42,50.42,0,0,1-6-7.07c-1.81-2.56-3.52-5.22-5.16-7.94l-2.43-4.11L719,212.51a86.26,86.26,0,0,0-12.43-15.38,58.2,58.2,0,0,0-35.89-16.41,73.81,73.81,0,0,0-10-.29,45.76,45.76,0,0,0-10.11,1.45,42.6,42.6,0,0,0-9.59,3.68A44.55,44.55,0,0,0,632.47,191.31Z" transform="translate(-243.01 -71.13)"/>
    <path class="cls-8" d="M598.43,262c.16,0,.47,0,.91-.07.22,0,.44-.07.71-.1a7.78,7.78,0,0,0,.76-.2,4.14,4.14,0,0,0,1.41-.73,7.1,7.1,0,0,0,1.7-2.19c1.32-2.28,2.55-6.3,3.58-11,.52-2.38,1-5,1.47-7.74.13-.7.23-1.35.33-2s.18-1.37.27-2.07c.17-1.46.35-2.95.52-4.47.35-3.1.72-6.43,1.3-9.95.32-1.78.64-3.59,1.16-5.51a33.8,33.8,0,0,1,2.14-6.09,66.86,66.86,0,0,1,14.24-19.76,50.76,50.76,0,0,1,10.85-7.64,48.12,48.12,0,0,1,12.85-4.51,59.14,59.14,0,0,1,13.39-1,69.3,69.3,0,0,1,13.2,1.51,60.14,60.14,0,0,1,24.21,11.13A78.83,78.83,0,0,1,720.64,208c.61.81,1.14,1.66,1.66,2.5l1.58,2.51c.5.82,1.08,1.7,1.51,2.45l1.37,2.29c1.83,3,3.67,5.89,5.54,8.49a46.85,46.85,0,0,0,5.76,6.76,29.63,29.63,0,0,0,6.39,4.56c.58.33,1.21.65,1.8,1s1.28.66,1.85.91l1.62.71c.27.12.53.25.8.35l.78.25a17.51,17.51,0,0,0,5.72,1.07c3.46.07,6.58-1.16,9.82-2.48l2.4-1c.41-.16.77-.31,1.17-.45l1.19-.41c.73-.27,1.54-.47,2.25-.66a16.7,16.7,0,0,1,2-.42,17.39,17.39,0,0,1,3-.28l1,0a23.69,23.69,0,0,0-7.14,1.46,55.91,55.91,0,0,0-5.45,2.47,31.94,31.94,0,0,1-8.75,3.41,19.41,19.41,0,0,1-6-.6c-.51-.11-1-.33-1.51-.48s-1-.3-1.51-.54l-1.5-.68c-.5-.21-1-.44-1.56-.73a51.61,51.61,0,0,1-6-3.46,30.22,30.22,0,0,1-4.92-4.3,76,76,0,0,1-8.32-11.4c-1.3-2.08-2.48-4.16-3.8-6.35l-2.07-3.35-1-1.68c-.36-.55-.76-1.08-1.14-1.62L717,205c-.77-1.08-1.67-2.08-2.5-3.12-1.62-2.11-3.55-4-5.39-6A69,69,0,0,0,696.14,186a58,58,0,0,0-15.24-6.19,70,70,0,0,0-16.11-2c-1.35,0-2.62-.06-4,0l-2.09.09c-.7,0-1.4.15-2.1.22a51.42,51.42,0,0,0-8.28,1.65,48.74,48.74,0,0,0-15.12,7.63,54.91,54.91,0,0,0-11.63,12c-.77,1.13-1.58,2.24-2.31,3.39s-1.42,2.33-2.1,3.51l-1.89,3.58c-.32.65-.68,1.47-1,2.18s-.56,1.46-.75,2.15a63.11,63.11,0,0,0-1.85,8.13c-.43,2.63-.76,5.2-1.06,7.73s-.58,5-.92,7.32c-.08.59-.18,1.13-.27,1.7l-.32,1.81c-.22,1.2-.45,2.4-.69,3.59-.48,2.37-1,4.71-1.6,6.94a40,40,0,0,1-2.13,6.12,15.26,15.26,0,0,1-1.29,2.25,5.53,5.53,0,0,1-1.26,1.29,4.33,4.33,0,0,1-1.42.64A10.31,10.31,0,0,1,598.43,262Z" transform="translate(-243.01 -71.13)"/>
  </g>
  <g>
    <path class="cls-9" d="M751,199.3a5.62,5.62,0,0,1-.42-1.23c-.05-.17-.1-.36-.16-.56s0-.42-.07-.65l-.05-.36v-.38a4.53,4.53,0,0,1,0-.81,9,9,0,0,1,1.49-4,17.43,17.43,0,0,1,4.41-4.52c.49-.32,1-.75,1.5-1a15.12,15.12,0,0,1,1.56-.8,21.09,21.09,0,0,1,3.77-1.19,27.87,27.87,0,0,1,8.77-.58,22.87,22.87,0,0,1,8.72,2.48,21.57,21.57,0,0,1,1.91,1.16,16.5,16.5,0,0,1,1.73,1.42,16.93,16.93,0,0,1,2.88,3.46,13.59,13.59,0,0,1,2.24,8.13,28,28,0,0,1-.65,4.61,21,21,0,0,1-1.42,4.12,16.88,16.88,0,0,1-5.09,6.13,23,23,0,0,1-3.3,2.1,25,25,0,0,1-3.4,1.5,20.45,20.45,0,0,1-6.11,1.31,11.45,11.45,0,0,1-4.23-.5,6.82,6.82,0,0,1-2.78-1.65,8.62,8.62,0,0,0,6.29.76,22.19,22.19,0,0,0,10.41-2.94,16.89,16.89,0,0,0,7.32-7.36,20.22,20.22,0,0,0,1.64-5.21c.17-.92.29-1.94.37-2.86a11.72,11.72,0,0,0-.07-2.44,14.9,14.9,0,0,0-4.9-8.9c-5.15-4.79-14.12-6-21.57-4a18.18,18.18,0,0,0-2.64.91A8.64,8.64,0,0,0,758,186c-.18.1-.36.19-.55.31l-.61.4a18.4,18.4,0,0,0-4.15,3.71,10,10,0,0,0-2.18,4.34A8.09,8.09,0,0,0,751,199.3Z" transform="translate(-243.01 -71.13)"/>
    <path class="cls-9" d="M774.47,181.82a10,10,0,0,1,1.06.21l1,.23,1.31.4a21.09,21.09,0,0,1,7,3.86,18.28,18.28,0,0,1,5.79,9.09,15,15,0,0,1,.41,2.93c0,.5,0,1,0,1.5s-.1,1.08-.14,1.61a25.54,25.54,0,0,1-1.49,6.29c-3,8.14-12,12.35-18.12,13.28a18.08,18.08,0,0,1-4.22.14,11.49,11.49,0,0,1-3-.71,8,8,0,0,1-1.69-.87l-.42-.28a.79.79,0,0,1-.14-.1,9.52,9.52,0,0,0,4.9,1,13.6,13.6,0,0,0,3.62.09,20.81,20.81,0,0,0,3.77-.7,28.14,28.14,0,0,0,7.2-3.15,23,23,0,0,0,3.08-2.32,18.22,18.22,0,0,0,2.51-2.83,19.63,19.63,0,0,0,3.06-7,27,27,0,0,0,.64-4,15,15,0,0,0-.09-3.73,16.24,16.24,0,0,0-2.94-7,18.78,18.78,0,0,0-5.7-5.24A22.52,22.52,0,0,0,774.47,181.82Z" transform="translate(-243.01 -71.13)"/>
    <path class="cls-9" d="M748.18,203.22c-.09-.17-.39-.74-.89-1.65-.19-.49-.43-1.06-.67-1.73a13.91,13.91,0,0,1-.51-2.38,12.23,12.23,0,0,1,.92-6.22,18.11,18.11,0,0,1,4.73-6.33,25.15,25.15,0,0,1,3.57-2.67,20.49,20.49,0,0,1,4.36-2,32.67,32.67,0,0,1,15.34-.95,27.42,27.42,0,0,1,5.26,1.52,21.58,21.58,0,0,1,8.93,6.54,19,19,0,0,1,4.34,10.14,22.34,22.34,0,0,1-.25,5.44,26,26,0,0,1-1.24,5.14,21,21,0,0,1-5.36,8.39,28,28,0,0,1-3.65,2.85,33.66,33.66,0,0,1-3.79,2.05,24.06,24.06,0,0,1-13,2.38,14.63,14.63,0,0,1-2.13-.45,15.28,15.28,0,0,1-1.51-.58l-.9-.44a1.39,1.39,0,0,1-.3-.18,14.51,14.51,0,0,0,9.59.24,28.41,28.41,0,0,0,12.2-4.64,20.11,20.11,0,0,0,7.93-10.21,28.53,28.53,0,0,0,1.4-6.5,16.32,16.32,0,0,0-.52-6.56,20.19,20.19,0,0,0-7.7-10.64,25.71,25.71,0,0,0-12.64-4.34,30.54,30.54,0,0,0-13.39,1.72c-.54.19-1,.46-1.58.68s-1,.55-1.5.83a27.25,27.25,0,0,0-2.78,2,20,20,0,0,0-4.52,5.16,12.79,12.79,0,0,0-1.77,6.69A14,14,0,0,0,748.18,203.22Z" transform="translate(-243.01 -71.13)"/>
    <path class="cls-9" d="M774.85,177.29a12.59,12.59,0,0,1,1.24.23,23.18,23.18,0,0,1,2.79.72,25.27,25.27,0,0,1,8.63,4.57A22.88,22.88,0,0,1,795,194.08a19.31,19.31,0,0,1,.63,3.81l.06,1,0,1c0,.68-.08,1.27-.13,1.89a30.65,30.65,0,0,1-1.66,7.42,22.48,22.48,0,0,1-3.86,6.76,24.89,24.89,0,0,1-5.58,4.94,31.92,31.92,0,0,1-11.95,4.76,22.28,22.28,0,0,1-5.32.27,16,16,0,0,1-4.2-.87l-.82-.29-.69-.34a8.45,8.45,0,0,1-1.07-.57l-.86-.57a14,14,0,0,0,7.08,1.67,23,23,0,0,0,9.25-.92,31.93,31.93,0,0,0,8.34-3.81,23.5,23.5,0,0,0,6.76-6.5,24.8,24.8,0,0,0,2.24-4.19,27.5,27.5,0,0,0,1.36-4.48,35.89,35.89,0,0,0,.68-4.58,20,20,0,0,0-.26-4.88,20.94,20.94,0,0,0-3.94-8.79,23.27,23.27,0,0,0-7.19-6.34A28,28,0,0,0,774.85,177.29Z" transform="translate(-243.01 -71.13)"/>
    <path class="cls-9" d="M742,200.71c0-.12-.11-.4-.22-.82,0-.21-.12-.45-.18-.73l-.13-1a16,16,0,0,1,.31-6,19.54,19.54,0,0,1,3.66-7.42,27,27,0,0,1,17.42-10.13,36.82,36.82,0,0,1,11.6-.2,30.08,30.08,0,0,1,12,4.25,26.09,26.09,0,0,1,9.22,9.88,23.14,23.14,0,0,1,2.34,6.66c.09.59.17,1.18.25,1.77l.1,1.78c0,.6,0,1.19,0,1.78s-.09,1-.14,1.56a30.36,30.36,0,0,1-3.7,12.07,26.47,26.47,0,0,1-8.34,8.77,34.7,34.7,0,0,1-4.65,2.62,33.84,33.84,0,0,1-4.65,1.79,27.42,27.42,0,0,1-9,1.29,18.75,18.75,0,0,1-7.62-1.81,17,17,0,0,1-2.66-1.61,22,22,0,0,1-1.74-1.53c-.84-.91-1.26-1.42-1.26-1.42a16.05,16.05,0,0,0,5.88,3.88,17,17,0,0,0,6.35,1,25.11,25.11,0,0,0,8-.64A32.74,32.74,0,0,0,782,224a30,30,0,0,0,6.52-4.29,24.45,24.45,0,0,0,5.17-6.26,27.79,27.79,0,0,0,2.87-7.46,31.64,31.64,0,0,0,.66-3.81c.06-.65.16-1.21.18-1.95a18.92,18.92,0,0,0,0-2.13,21.58,21.58,0,0,0-.61-4.23,23,23,0,0,0-1.42-4,25.22,25.22,0,0,0-4.67-6.77,24.4,24.4,0,0,0-3.08-2.74c-.55-.44-1.14-.78-1.72-1.17l-.87-.55-.9-.48a28.58,28.58,0,0,0-7.54-2.73,36.4,36.4,0,0,0-15.55,0,27.42,27.42,0,0,0-7.76,2.88c-.69.38-1.21.75-1.77,1.12s-1.09.79-1.63,1.19a27.83,27.83,0,0,0-3.06,2.81,20.75,20.75,0,0,0-4.68,7.64A16.94,16.94,0,0,0,742,200.71Z" transform="translate(-243.01 -71.13)"/>
  </g>
  <g>
    <path class="cls-9" d="M829.43,219.73a15.6,15.6,0,0,1,5.24.05,23,23,0,0,1,5.51,1.61,26.47,26.47,0,0,1,6.33,3.77,19.44,19.44,0,0,1,2.82,2.77,12.84,12.84,0,0,1,1.9,3.44,21.57,21.57,0,0,1,1.68,9,14,14,0,0,1-3.34,8.35c-.27.3-.49.63-.79.92l-.89.86-.22.22-.2.16-.39.32c-.32.2-.59.43-.94.62a20.36,20.36,0,0,1-4.6,2,27.54,27.54,0,0,1-10.34,1c-.43,0-.85-.08-1.26-.16a11.07,11.07,0,0,1-1.19-.22,7.08,7.08,0,0,1-1.07-.29,9.42,9.42,0,0,1-1.09-.38,25.43,25.43,0,0,1-4.34-2.32c-2.88-1.86-5.66-4.15-8.46-6.29a67.62,67.62,0,0,0-8.58-5.79,29.44,29.44,0,0,0-8.93-3.26,24,24,0,0,0-7.61-.13l-1.48.24c-.45.1-.87.22-1.26.31a17.77,17.77,0,0,0-1.95.58l-1.18.41-.39.16a25.8,25.8,0,0,1,12.9-3.3,29.55,29.55,0,0,1,8.84,2.82,47.92,47.92,0,0,1,7.19,4.45c4.34,3.17,8.06,6.51,11.75,9a21,21,0,0,0,5.3,2.65,20.22,20.22,0,0,0,2.83.53,24.63,24.63,0,0,0,3.11.17,26.82,26.82,0,0,0,6.25-.79,19.58,19.58,0,0,0,5.49-2.2l.53-.35.46-.36c.32-.27.7-.66,1.06-1a15.12,15.12,0,0,0,1.84-2.2A13.11,13.11,0,0,0,852.1,242c.76-3.66-.12-7.92-1.87-11.89a13.86,13.86,0,0,0-3.48-4.33,25,25,0,0,0-5.3-3.58C837.61,220.29,833.25,219.15,829.43,219.73Z" transform="translate(-243.01 -71.13)"/>
    <path class="cls-9" d="M854.44,243.08a6.28,6.28,0,0,1-.27,1.09c-.1.3-.18.66-.34,1.06l-.56,1.33c-.26.47-.52,1-.85,1.54a19,19,0,0,1-1.2,1.67,16.46,16.46,0,0,1-1.58,1.72,10.56,10.56,0,0,1-1.88,1.59,25.25,25.25,0,0,1-11.64,3.68,28,28,0,0,1-7-.29,18.69,18.69,0,0,1-6.45-2.48c-4.19-2.46-8.08-5.87-12.06-8.78s-8.11-5.46-12.21-6.63a23.56,23.56,0,0,0-5.73-.92,17.51,17.51,0,0,0-2.44.07,16.16,16.16,0,0,0-2,.26,15.13,15.13,0,0,0-1.62.34l-1.17.31-1,.32a23.49,23.49,0,0,1,7.51-2.3,24.84,24.84,0,0,1,10.6,2.58,49.12,49.12,0,0,1,8.65,5.47c2.63,2,5.08,4.06,7.56,5.92a33.65,33.65,0,0,0,7.56,4.57,22.83,22.83,0,0,0,8.42,1.25,29.21,29.21,0,0,0,8.66-1.54,19.52,19.52,0,0,0,3.87-1.78l.84-.57c.26-.21.51-.38.77-.62.51-.51,1.08-1,1.54-1.51A16.08,16.08,0,0,0,854.44,243.08Z" transform="translate(-243.01 -71.13)"/>
    <path class="cls-9" d="M825.94,215.75l2-.53c.56-.1,1.24-.18,2-.29s1.67-.06,2.65-.06a29.22,29.22,0,0,1,14.58,5,27.86,27.86,0,0,1,3.86,3.08,17.88,17.88,0,0,1,3.31,4.13,27.84,27.84,0,0,1,3.17,10.77,19.21,19.21,0,0,1-2.7,11.6,23.61,23.61,0,0,1-4,4.71,18.5,18.5,0,0,1-5.33,3.2,31.27,31.27,0,0,1-12,2.24,29.11,29.11,0,0,1-6-.65,21.67,21.67,0,0,1-5.46-2.16,69.66,69.66,0,0,1-9-6.25c-2.72-2.12-5.29-4.11-7.81-5.7a30.65,30.65,0,0,0-7.25-3.5,19.5,19.5,0,0,0-6.06-.94,21.53,21.53,0,0,0-2.28.12l-1.66.28-1.36.34a20.15,20.15,0,0,1,10.83-1.57,28.81,28.81,0,0,1,7.09,3.15,62.83,62.83,0,0,1,6.25,4.37c4,3.06,7.74,6.41,12,8.79s9.33,3,14.24,2.54a29.31,29.31,0,0,0,7.22-1.58,21.73,21.73,0,0,0,3.38-1.5,13,13,0,0,0,3-2.17,19.39,19.39,0,0,0,4.48-5.88,18.32,18.32,0,0,0,1.78-7.21,24.59,24.59,0,0,0-.91-7.43,31.73,31.73,0,0,0-1.24-3.55,12.08,12.08,0,0,0-.8-1.71,10.35,10.35,0,0,0-1-1.61,23.65,23.65,0,0,0-5.42-5.24,32.73,32.73,0,0,0-6.64-3.65C836.28,215.05,831,214.24,825.94,215.75Z" transform="translate(-243.01 -71.13)"/>
    <path class="cls-9" d="M859.36,243.65a18.52,18.52,0,0,1-1.44,4.6c-.26.66-.67,1.31-1,2s-.94,1.43-1.48,2.19l-.92,1.1-.49.57-.54.53c-.36.36-.73.73-1.12,1.1a15.32,15.32,0,0,1-1.37,1.1,29.27,29.27,0,0,1-14,4.76,33.14,33.14,0,0,1-8.18-.22l-1-.17-1.1-.26a21.71,21.71,0,0,1-2.12-.66,28.34,28.34,0,0,1-3.89-1.83c-4.87-2.8-8.78-6.28-12.58-9.07a37.08,37.08,0,0,0-10.64-6,18.76,18.76,0,0,0-4.48-.84,17.56,17.56,0,0,0-3.49.19,19.74,19.74,0,0,0-2.22.48,4.41,4.41,0,0,0-.58.17l-.2.07a18.75,18.75,0,0,1,6-1.91,20.25,20.25,0,0,1,8.49,2.3,48.13,48.13,0,0,1,7.75,5c2.5,1.92,5,4,7.6,5.95a35.6,35.6,0,0,0,8.84,5.1l1.28.43,1.32.33c.87.16,1.72.33,2.58.41a31.83,31.83,0,0,0,5.16.21,33.23,33.23,0,0,0,10.15-2A23.64,23.64,0,0,0,850.4,257a12.84,12.84,0,0,0,1.15-.83l.57-.46.48-.45a21.32,21.32,0,0,0,1.88-1.92l.88-1,.78-1.11a20.79,20.79,0,0,0,1.42-2.36A20.42,20.42,0,0,0,859.36,243.65Z" transform="translate(-243.01 -71.13)"/>
    <path class="cls-9" d="M830.1,209.76c.26,0,1.15,0,2.57,0l2.48.19c.93.14,2,.31,3.12.55a36.82,36.82,0,0,1,7.56,2.7,34.7,34.7,0,0,1,8.44,5.72,24,24,0,0,1,2.09,2.16,23.33,23.33,0,0,1,2,2.62,31.68,31.68,0,0,1,4.16,19.5,24.35,24.35,0,0,1-2.31,7.27,25.47,25.47,0,0,1-4.47,6.2l-1.33,1.3a20.7,20.7,0,0,1-1.66,1.35,23,23,0,0,1-3.41,2,32.21,32.21,0,0,1-6.92,2.46,36.8,36.8,0,0,1-14.18.58l-.89-.14-1-.22a15.89,15.89,0,0,1-1.89-.53c-.63-.19-1.2-.42-1.78-.65s-1.12-.48-1.66-.74a43.43,43.43,0,0,1-5.69-3.4c-3.39-2.37-6.19-4.71-8.83-6.67a44.21,44.21,0,0,0-7.25-4.62,15.11,15.11,0,0,0-10.42-1.44,16.17,16.17,0,0,0-1.7.48c-.49.17-.91.31-1.26.47l-1,.45a18.16,18.16,0,0,1,7.88-3.31c3.94.23,7.83,2.07,11.63,4.74s7.52,6,11.92,9.1a35.15,35.15,0,0,0,7.5,4.2c.71.28,1.47.52,2.23.74a23,23,0,0,0,2.27.5c.73.13,1.45.23,2.17.3s1.45.12,2.17.16a35.94,35.94,0,0,0,8.6-.66,31.36,31.36,0,0,0,8.39-2.83,21.61,21.61,0,0,0,4.11-2.74l1.65-1.57c.55-.53,1-1.16,1.54-1.74a23.46,23.46,0,0,0,4.43-8.42,24.54,24.54,0,0,0,.75-9.37,33.21,33.21,0,0,0-2.15-8.66c-.28-.7-.53-1.31-.87-2l-.63-1.19a8.55,8.55,0,0,0-.69-1.12,18.89,18.89,0,0,0-1.48-2,22.19,22.19,0,0,0-1.59-1.74,34.64,34.64,0,0,0-7.13-5.42,36.52,36.52,0,0,0-8.19-3.42A28.45,28.45,0,0,0,830.1,209.76Z" transform="translate(-243.01 -71.13)"/>
  </g>
  <path d="M840.85,300.83c6.52-7.55,12.63-14.44,21.09-19.94l-1.7-1.71c-3.24,4.56-4.79,9.67-6.37,15a42.29,42.29,0,0,1-6.07,12.9,1.22,1.22,0,0,0,1.66,1.66c3.43-2.25,4.85-5.82,5.92-9.65,1.8-6.44,3.16-13,7-18.62.69-1-.7-2.41-1.71-1.7-8,5.59-16.14,12.58-21.24,21-.52.86.73,1.88,1.41,1.09Z" transform="translate(-243.01 -71.13)"/>
  <g>
    <path class="cls-9" d="M587.59,324.66A16.83,16.83,0,0,1,589.9,322a27.24,27.24,0,0,1,7.08-4.8,42.07,42.07,0,0,1,11.79-3.43c1.12-.2,2.29-.27,3.45-.41s2.67-.28,4-.51a49.54,49.54,0,0,0,7.94-2.06A55.83,55.83,0,0,0,648.5,294a30.64,30.64,0,0,0,5.24-8.89c.23-.62.38-1.22.53-1.73s.2-1,.27-1.36l.14-1.2a21.76,21.76,0,0,1-1.44,8.48,40.74,40.74,0,0,1-6.59,8.46,54.12,54.12,0,0,1-7.95,6.59A55.85,55.85,0,0,1,620,312.7a48.16,48.16,0,0,1-5.1.92c-.85.11-1.74.17-2.58.25l-2.21.19a47.67,47.67,0,0,0-8.62,1.71,33.3,33.3,0,0,0-7.82,3.46A22.18,22.18,0,0,0,587.59,324.66Z" transform="translate(-243.01 -71.13)"/>
    <path class="cls-9" d="M610.33,312l2.62-.29a44.22,44.22,0,0,0,6.35-1.11,50.62,50.62,0,0,0,8.35-2.87,55.76,55.76,0,0,0,8.72-4.85,48.48,48.48,0,0,0,13.21-13,24,24,0,0,0,2.81-5.69,15.73,15.73,0,0,0,.48-1.8c.09-.42.12-.66.12-.66a18.56,18.56,0,0,1-.73,5,37.36,37.36,0,0,1-7.87,10.39,55.24,55.24,0,0,1-10.14,7.64,54.32,54.32,0,0,1-11.56,5.13,50.42,50.42,0,0,1-6.18,1.46C614.43,311.65,612.22,311.8,610.33,312Z" transform="translate(-243.01 -71.13)"/>
    <path class="cls-9" d="M583.5,323.91A19.88,19.88,0,0,1,586,320.5a28.22,28.22,0,0,1,7.76-6,39.58,39.58,0,0,1,5.86-2.54,51.15,51.15,0,0,1,6.85-1.76c2.39-.43,4.94-.66,7.41-.92a44.37,44.37,0,0,0,7.39-1.62,51.79,51.79,0,0,0,13.37-6.4,50.74,50.74,0,0,0,9.76-8.41,31.23,31.23,0,0,0,5.07-7.49,15.94,15.94,0,0,0,1.12-3.2A20.69,20.69,0,0,1,649,289a40.75,40.75,0,0,1-6.31,7.34,52.5,52.5,0,0,1-7.61,5.87,53.21,53.21,0,0,1-8.5,4.43,47.25,47.25,0,0,1-9.15,2.75c-3.13.66-6.32.69-9.46,1.14a47.13,47.13,0,0,0-9.25,2.19,35.52,35.52,0,0,0-8.52,4.3A24.24,24.24,0,0,0,583.5,323.91Z" transform="translate(-243.01 -71.13)"/>
    <path class="cls-9" d="M609.58,308l2.71-.3a42.07,42.07,0,0,0,5.78-1,49.19,49.19,0,0,0,15.79-7.06,50.32,50.32,0,0,0,7.13-5.78,38.14,38.14,0,0,0,5-6,21.13,21.13,0,0,0,2.42-4.73,10.8,10.8,0,0,0,.38-1.34l.1-.47a13.39,13.39,0,0,1-.47,3.93,34.6,34.6,0,0,1-7.12,9.16,52.18,52.18,0,0,1-9.44,7,50.74,50.74,0,0,1-10.72,4.68,48.64,48.64,0,0,1-5.66,1.28c-1,.14-1.91.28-2.87.34Z" transform="translate(-243.01 -71.13)"/>
    <path class="cls-9" d="M581.81,318.92a27.2,27.2,0,0,1,3.42-3.61,35.46,35.46,0,0,1,9.38-5.9,51.44,51.44,0,0,1,14.12-3.82l3.77-.4c1.1-.1,2.2-.28,3.31-.49a42.74,42.74,0,0,0,6.62-1.87c8.73-3.2,16.37-9.35,20.38-14.67a20.14,20.14,0,0,0,3.54-6.47,6.29,6.29,0,0,0,.29-2,8.34,8.34,0,0,1-.07,4.86,30.6,30.6,0,0,1-5.05,6.83,47.18,47.18,0,0,1-6.68,5.75A48.83,48.83,0,0,1,619,304.63a41.26,41.26,0,0,1-4.24.84c-.71.1-1.42.2-2.13.25l-2.36.21a56.55,56.55,0,0,0-10.13,1.81,42.37,42.37,0,0,0-9.79,4.07A30.89,30.89,0,0,0,581.81,318.92Z" transform="translate(-243.01 -71.13)"/>
  </g>
  <g>
    <path class="cls-9" d="M620.29,272.21a5.15,5.15,0,0,1,2.67-.62,63.32,63.32,0,0,1,9.56.69,133,133,0,0,0,14.32,1.05A80.83,80.83,0,0,0,655,273c2.79-.24,5.55-.74,8.31-1.23a63.48,63.48,0,0,0,15.78-5.16,43.82,43.82,0,0,0,12.06-8.55,34.54,34.54,0,0,0,6.25-8.63c.62-1.14,1-2.11,1.27-2.73l.36-1a34.15,34.15,0,0,1-2.56,7.85,37.57,37.57,0,0,1-7.75,8.25,48.69,48.69,0,0,1-9.39,5.79,71,71,0,0,1-20.46,5.61,85.64,85.64,0,0,1-20.86,0c-3.4-.35-6.75-.86-9.94-1.22a39.42,39.42,0,0,0-4.57-.31,12.44,12.44,0,0,0-1.92.14A4.4,4.4,0,0,0,620.29,272.21Z" transform="translate(-243.01 -71.13)"/>
    <path class="cls-9" d="M648.85,271.77a79.28,79.28,0,0,0,9.5-.75,69.05,69.05,0,0,0,18.85-5.28,46.29,46.29,0,0,0,9-5.38,38.41,38.41,0,0,0,6.51-6.5,33.81,33.81,0,0,0,3.48-5.55c.67-1.43,1-2.26,1-2.26-.21.79-.4,1.61-.64,2.41s-.52,1.6-.83,2.38a36.28,36.28,0,0,1-9.26,10.08,49,49,0,0,1-11.82,6.38,72.47,72.47,0,0,1-12.76,3.35A75.27,75.27,0,0,1,648.85,271.77Z" transform="translate(-243.01 -71.13)"/>
    <path class="cls-9" d="M616.83,270.18a6.22,6.22,0,0,1,1.06-1,7.46,7.46,0,0,1,3-1.2c2.61-.5,6.16-.18,10.27.28s8.85,1.05,13.91,1.21a73.92,73.92,0,0,0,15.71-1.14,64.31,64.31,0,0,0,15-4.41,41.74,41.74,0,0,0,11.38-7.27,32.26,32.26,0,0,0,6-7.38c.56-1,1-1.8,1.25-2.35l.38-.86a29.26,29.26,0,0,1-2.57,6.88,36.16,36.16,0,0,1-7.37,7,46.8,46.8,0,0,1-4.28,2.72,50.05,50.05,0,0,1-4.56,2.18,60.13,60.13,0,0,1-9.58,3.1c-1.64.32-3.27.74-4.93,1s-3.3.54-5,.69a88.32,88.32,0,0,1-20-.44c-3.31-.38-6.6-.9-9.94-1.2a25.15,25.15,0,0,0-5.06,0A7.06,7.06,0,0,0,616.83,270.18Z" transform="translate(-243.01 -71.13)"/>
    <path class="cls-9" d="M648.51,267.73a81.53,81.53,0,0,0,9-.68l4.08-.68c1.43-.29,2.92-.64,4.46-1a59.75,59.75,0,0,0,9.22-3.21,41.17,41.17,0,0,0,8.23-4.84,34.8,34.8,0,0,0,5.86-5.73,29.78,29.78,0,0,0,3.08-4.84,14.57,14.57,0,0,0,.68-1.45l.23-.52a28.61,28.61,0,0,1-1.23,4.23,31.81,31.81,0,0,1-8.33,8.86,44.8,44.8,0,0,1-10.86,5.74,65.66,65.66,0,0,1-12,3.09A71.6,71.6,0,0,1,648.51,267.73Z" transform="translate(-243.01 -71.13)"/>
    <path class="cls-9" d="M618,264.41a14,14,0,0,1,2-.56,21.16,21.16,0,0,1,3.9-.36,100.1,100.1,0,0,1,10.69.89,112,112,0,0,0,13.41.88,69.93,69.93,0,0,0,7.32-.4l1.85-.23,1.88-.31c1.25-.21,2.51-.39,3.73-.7a54.46,54.46,0,0,0,13.68-4.72,34.19,34.19,0,0,0,9.62-7.18,27.2,27.2,0,0,0,4.58-6.81c.2-.45.38-.85.53-1.2l.33-.9c.18-.5.28-.76.28-.76a25.68,25.68,0,0,1-1.49,6.17,32.8,32.8,0,0,1-13.56,11.61l-1,.52c-.35.16-.72.3-1.07.45l-2.14.88-2.22.76-1.1.37-1.14.3-2.27.62c-.76.18-1.54.32-2.31.49-1.54.36-3.11.58-4.68.81a75,75,0,0,1-19,.23c-3.2-.31-6.43-.78-9.83-1.2-1.71-.21-3.46-.4-5.37-.47A18.43,18.43,0,0,0,618,264.41Z" transform="translate(-243.01 -71.13)"/>
  </g>
  <path d="M581.15,250.94c-3.45,10.49,6.79,23.62,17.22,24.68,6.17.62,10.76-3.06,14.42-7.63,5.16-6.44,9.6-13.43,14.87-19.79,10.92-13.2,28.52-25.84,46.22-17.75,7.26,3.32,13.14,9,19.77,13.32a89.85,89.85,0,0,0,20.28,9.83c27.81,9.4,59.64,3.44,79.29-19.23,8.88-10.26,15.79-24.2,13.74-38.06S796.3,172.43,783.5,167.1c-12.39-5.15-29-2.65-40.34,4.21-9.07,5.5-14.94,14.06-21.17,22.38-1.83,2.43,2.28,4.8,4.08,2.38,4.68-6.25,9.08-12.79,15.23-17.73,9.13-7.32,21-9.74,32.5-8.85,12.61,1,24.77,11,28.38,23,4.36,14.41-2.31,29.25-11.84,40-18.73,21.24-48.4,26.83-74.78,18.26a85.83,85.83,0,0,1-19.63-9.28c-5.62-3.57-10.64-8-16.35-11.47-10.46-6.33-22.15-6.47-33.16-1.31-13.69,6.43-22.61,19.07-31.16,31-5.45,7.62-12,17.28-22.6,11.32-6-3.38-11.61-12.58-9.51-19.54.38-1.29-1.58-1.81-2-.55Z" transform="translate(-243.01 -71.13)"/>
  <path d="M800.77,222.55c12.54-17.62,39-21.33,54.65-5.34,6.49,6.64,10.47,15.67,9.74,25s-7.65,17.26-15.93,21.27a35.53,35.53,0,0,1-32.86-1c-7.58-4.26-14.12-10.05-22.27-13.29-13-5.15-26.56-1.78-38.93,3.48-2.31,1-.62,5.08,1.73,4.09,13.32-5.57,27.84-9,41.12-1.63,8.83,4.88,16.27,12.14,26.31,14.65,13.69,3.42,30-1.44,38.69-12.76,11.05-14.47,4.58-34.67-9.06-45-17.6-13.3-42.64-8.22-55.25,9.24-.9,1.24,1.17,2.45,2.06,1.2Z" transform="translate(-243.01 -71.13)"/>
  <path d="M686,174.81c7.4.63,14.41,4.67,20.43,8.77,6.25,4.25,11.69,9,15.75,15.46,6.89,10.89,12.46,22.58,21.56,31.94,8.44,8.68,19.44,12,31.31,9.16a46,46,0,0,0,17-8.29c4.28-3.25,9.72-7.56,11.19-13,.29-1-1-2.16-1.93-1.48-4.78,3.31-8,8.43-12.9,11.83a40.4,40.4,0,0,1-19.43,7.54c-14.44,1.27-23.43-8.67-31.12-19.46-6.76-9.49-11.48-21.17-20.51-28.8S698,174.34,686.38,171.86a1.5,1.5,0,1,0-.4,2.95Z" transform="translate(-243.01 -71.13)"/>
  <circle class="cls-2" cx="598.18" cy="239.22" r="1.43"/>
  <circle class="cls-2" cx="586.2" cy="230.94" r="1.43"/>
  <circle class="cls-2" cx="571.93" cy="223.49" r="1.43"/>
  <path class="cls-2" d="M786.53,411.62c2.29-5,2.66-11,4.35-16.22,3.53-10.9,9.49-20.28,17-28.82,1.51-1.71-1.06-4.23-2.49-2.49A89.35,89.35,0,0,0,789.34,392c-2.07,6.11-3.35,12.49-5,18.74-.31,1.23,1.57,2.15,2.14.9Z" transform="translate(-243.01 -71.13)"/>
  <path class="cls-10" d="M770.3,425a4.86,4.86,0,0,1-1.3-4.23,6.85,6.85,0,0,1,.84-2.22,9.2,9.2,0,0,1,.66-1,8,8,0,0,1,.8-.9,7.44,7.44,0,0,1,2.09-1.49,4.89,4.89,0,0,1,2.5-.39,4.67,4.67,0,0,1,4,2.68l-.21.28a13.63,13.63,0,0,0-3.66.41c-.5.13-1,.24-1.45.32a3.71,3.71,0,0,0-2.13.9c-.23.18-.45.38-.66.58a5.57,5.57,0,0,0-1,1.34,3.76,3.76,0,0,0-.46,1.64,5,5,0,0,0,.34,1.86Z" transform="translate(-243.01 -71.13)"/>
  <path class="cls-11" d="M545.5,239c7.77-2.16,9.17-1.71,13-.59,23.32,6.88,31.85,42.29,31.85,53.63" transform="translate(-243.01 -71.13)"/>
  <ellipse class="cls-12" cx="491.19" cy="327.46" rx="6.12" ry="8.79" transform="translate(-336 341.35) rotate(-41.97)"/>
  <g>
    <path class="cls-13" d="M720.22,548.46c3.39,27.86-9.85,32.47-13.69,34-5.46,2.24-7.12,1.31-12.4-2-1.49-1-5.46-12.61-4.58-15.46" transform="translate(-243.01 -71.13)"/>
    <path class="cls-14" d="M718.65,548.46c1.16,10.4,1.3,24.38-8.78,30.7-3.75,2.34-8,3.81-12.16,1.67s-7.57-10.63-6.66-15.4c.38-2-2.63-2.81-3-.83-.89,4.62,1.48,13.27,4.73,16.74,4.7,5,11.09,4.3,16.62,1.64,12.86-6.2,13.78-22,12.39-34.52-.22-2-3.35-2-3.13,0Z" transform="translate(-243.01 -71.13)"/>
  </g>
  <g>
    <path class="cls-13" d="M713.66,551.63c3.93,13.06-4.49,16.37-6.91,17.45-3.45,1.53-4.6,1.22-8.27.06-1-.33-4.35-5.59-4-7" transform="translate(-243.01 -71.13)"/>
    <path class="cls-14" d="M712.81,551.87c1.63,5.87,1.39,12.08-4.36,15.4-2.23,1.29-4.79,2.32-7.38,1.71s-5.89-3.81-5.65-6.87c.08-1.13-1.69-1.12-1.77,0-.19,2.41,2.14,6.31,4.11,7.63,3.19,2.15,7.32,1.17,10.46-.36,7.24-3.53,8.31-10.71,6.3-18a.89.89,0,0,0-1.71.47Z" transform="translate(-243.01 -71.13)"/>
  </g>
  <g>
    <path class="cls-13" d="M831.58,558.87c-6.46,33.53-12.19,33.37-14.47,34.8-3.25,2-4.91-.29-6.44-4.89-.44-1.3-.8-12.49.44-15.78" transform="translate(-243.01 -71.13)"/>
    <path class="cls-14" d="M830.41,558.55a151.13,151.13,0,0,1-5.84,22.86c-1.16,3.18-2.59,7-5.19,9.39-1.51,1.37-4.09,2.84-6,1.13s-1.81-6.13-1.86-8.55c-.06-3.28-.18-6.89.8-10.06.46-1.49-1.88-2.13-2.34-.64-1.91,6.2-2.17,28.68,9.46,21.13,2.65-1.71,4.28-4.39,5.62-7.19,4.09-8.53,5.92-18.22,7.73-27.43.3-1.52-2-2.17-2.34-.64Z" transform="translate(-243.01 -71.13)"/>
  </g>
  <path class="cls-15" d="M359.68,609.75c-.21,4.78.19,9.61-.48,14.36a18.25,18.25,0,0,1-1.88,6.21c-1.21,2.18-2.82,4.09-3.74,6.43-1.81,4.67-.25,9.66,1.34,14.15a62.89,62.89,0,0,1,2.22,7,26.19,26.19,0,0,1,.3,8c-1,11-2.76,22.09-6.62,32.49-1.75,4.7-3.29,9.62-2,14.64,1.24,4.8,5,7.47,9.7,8.46a73.54,73.54,0,0,0,8,1.07,55.24,55.24,0,0,0,8.53.26C380,722.56,386,721.35,389,717c1.49-2.16,2.15-4.9,2.77-7.41a54.6,54.6,0,0,0,1.42-8.24,46.08,46.08,0,0,0-1.57-16.1c-1.31-5.08-3-10.22-2.62-15.54.31-4.13,2.06-8.21,3.65-12,1.71-4.09,3.65-8.08,5.43-12.14a114.74,114.74,0,0,1,5.44-11.42,104.42,104.42,0,0,1,16-20.53,108.48,108.48,0,0,1,14.22-12.45c.71-.5,1.43-1,2.18-1.44a1.8,1.8,0,0,0,.71-2.55,2.27,2.27,0,0,0-2.9-.3,80.69,80.69,0,0,0-12.48,9.94A124.92,124.92,0,0,0,404.89,625a86.54,86.54,0,0,0-7,11.3c-1.84,3.6-3.26,7.4-4.93,11.07-1.84,4-3.74,8.06-5.36,12.18s-2.93,8.09-2.9,12.39c0,5.26,1.73,10.33,3,15.37A42.44,42.44,0,0,1,388.8,703a51.31,51.31,0,0,1-1.63,7.94c-.61,2.17-1.24,4.6-3.17,6a15.1,15.1,0,0,1-6.9,2.18,40,40,0,0,1-8.11.06c-2.59-.21-5.19-.51-7.75-.9-2.26-.35-4.67-.92-6.29-2.65-3.06-3.24-2.71-8.21-1.59-12.16.73-2.56,1.77-5,2.65-7.53a75.75,75.75,0,0,0,2.19-7.65,163.78,163.78,0,0,0,2.68-16.2c.68-5.33,1.51-10.66.23-16-1.12-4.62-3.6-9-4.06-13.76a10.46,10.46,0,0,1,1.36-6.52A50,50,0,0,0,362,629.7c1.77-4.3,1.85-9.16,1.87-13.75,0-2.22,0-4.45.09-6.67.11-2.42-4.13-1.78-4.23.47Z" transform="translate(-243.01 -71.13)"/>
  <path class="cls-15" d="M466.36,606.64a99.81,99.81,0,0,1-24.92,16c-3,1.38-6,2.62-9.08,3.76-1.87.69-3.76,1.31-5.58,2.13a15.09,15.09,0,0,0-6.15,4.48,13.78,13.78,0,0,0-2.32,7.1,71.36,71.36,0,0,0,.1,8q.13,4.64.09,9.27a242.43,242.43,0,0,1-3,36.58c-.53,3.31-1,6.73-1.85,10a4.76,4.76,0,0,1-2,3.06,37.94,37.94,0,0,1-3.9,2,47.89,47.89,0,0,1-6,2.71,36.26,36.26,0,0,1-7.44,1.52,2.2,2.2,0,0,0-2.15,2.15c0,4.18,0,9.28,2.4,12.95,1.34,2.06,3.23,3,5.34,4.05.45.22.86.48,1.28.73s-.18-.22.24.18l.65.64c.4.41,0-.15.28.36.19.29.36.58.53.88a2.87,2.87,0,0,1,.2.39c-.25-.56,0-.08,0,0,.07.34.17.66.22,1-.08-.47,0,.48,0,.63,0,.41,0,.82,0,1.23,0,1-.07,2-.16,2.93a43.57,43.57,0,0,1-1,5.95,38.59,38.59,0,0,1-1.82,5.86,18.66,18.66,0,0,1-.89,1.83c-.18.32-.38.63-.58.94-.07.1-.34.42-.05.08-.14.17-.31.32-.45.49-.34.39.2,0-.25.19s-1.06.51-1.61.74a34.21,34.21,0,0,1-5.05,1.54c-1.43.34-2.89.61-4.34.86a16.92,16.92,0,0,1-3.15.42c-4,.13-7.91-.45-11.85-.67-5.84-.32-9.17,5.12-12,9.37a313.56,313.56,0,0,0-22.67,40.23c-.69,1.46.51,4,2.43,3.16a111.6,111.6,0,0,1,31-8.1,118.89,118.89,0,0,1,15.9-.6c5.36.14,10.65.12,15.65-2.08,4.53-2,8.34-5.28,12-8.53s7.44-6.56,9.69-11a37.94,37.94,0,0,0,2.38-7.22c2.89-10.24,5.52-20.55,8.2-30.85,2.87-11.05,5.7-22.12,8.63-33.16.8-3,1.58-6.08,2.49-9.08s2-6.43,4.28-8.78c2.82-2.89,7-3.84,10.9-4.18,2.09-.18,4.19-.21,6.29-.21,2.77,0,2.77-4.29,0-4.3-8.73,0-18.65,1-23.07,9.69a59.47,59.47,0,0,0-3.89,11.43c-2.75,10.15-5.34,20.34-8,30.51-2.89,11.17-5.76,22.35-8.8,33.48-.86,3.14-1.68,6.3-2.7,9.39a5.64,5.64,0,0,0-.38,1c0-.18.34-.46.14-.33s-.44.85-.6,1.13a19.68,19.68,0,0,1-2.17,3.11,74.26,74.26,0,0,1-10.63,9.8c-3.89,3.08-8.19,5.37-13.2,5.76-5.4.42-10.85-.15-16.26.1a114.94,114.94,0,0,0-31.7,6c-2.48.84-4.91,1.77-7.32,2.78l2.42,3.16a312.72,312.72,0,0,1,20.12-36.32,92.2,92.2,0,0,1,5.34-7.92c1.31-1.65,2.95-3.31,5.2-3.25,3.93.11,7.83.76,11.78.7a42.69,42.69,0,0,0,7.93-1.2,28.65,28.65,0,0,0,8.88-3c2.92-1.81,4.22-6,5.15-9.09a46.24,46.24,0,0,0,2.08-12.46c.06-3.15-.59-6.14-3-8.37a12.19,12.19,0,0,0-3.19-2.06c-.49-.23-1-.45-1.45-.71-.25-.14-.48-.29-.73-.44l-.21-.15c.52.37,0,0-.1-.1s-.4-.41-.6-.63c.37.42-.2-.32-.3-.49a6.7,6.7,0,0,1-.84-2.15,32.44,32.44,0,0,1-.8-8.34l-2.15,2.15a40.21,40.21,0,0,0,13.06-3.54,50.87,50.87,0,0,0,6.65-3.42,9.86,9.86,0,0,0,4.1-6.7,237,237,0,0,0,4.52-37.26q.43-9.49.14-19c-.14-4.38-1.22-10.5,2.84-13.52a17.29,17.29,0,0,1,3.24-1.78c.21-.1,1.58-.64.55-.26l.43-.16,2.5-.91q4.47-1.6,8.81-3.5a105.16,105.16,0,0,0,28.34-17.85c2.06-1.86-1-4.89-3-3Z" transform="translate(-243.01 -71.13)"/>
  <path class="cls-15" d="M349.12,713.82a12.69,12.69,0,0,1,0,3.89,20.22,20.22,0,0,1-1.13,3.37c-1.12,2.85-2.19,5.76-1.93,8.87.5,5.82,4.89,10.62,9.94,13.1a38.19,38.19,0,0,0,18.47,3.4c5.64-.31,12.59-2.68,14.94-8.34,1.39-3.37,1.13-7.56,1.12-11.12a102.12,102.12,0,0,0-.8-12.24c-.11-.87-4.27,0-4.12,1.2a83.48,83.48,0,0,1,.51,19.6,10,10,0,0,1-3.39,6.82,11,11,0,0,1-7,2.29c-10.06.29-24.33-3.83-25.52-15.72-.33-3.23.92-6.23,2.07-9.17a14,14,0,0,0,.95-7.15c-.09-.86-4.26,0-4.12,1.2Z" transform="translate(-243.01 -71.13)"/>
  <path class="cls-15" d="M361.74,742.49a38.74,38.74,0,0,1-8.57-2.36,101,101,0,0,1-9.95-4.37A118.66,118.66,0,0,1,323.88,723q-6.31-4.9-12.23-10.28l-1,1.85c7.47,0,12.82-5.64,19.13-8.71a31,31,0,0,1,21.34-2c.74.2,2.14.28,2.43-.66s-1-1.65-1.72-1.84a36.67,36.67,0,0,0-23,1.2,60.45,60.45,0,0,0-9.77,5.56c-3,1.92-6.2,3.69-9.88,3.66-1,0-1.9,1-1,1.85C321,725.22,334.82,735.9,351,742.08a47.71,47.71,0,0,0,11.15,3.14c.76.09,2-.15,1.88-1.13s-1.51-1.5-2.29-1.6Z" transform="translate(-243.01 -71.13)"/>
  <path class="cls-15" d="M385.31,762l.89,31.88.12,4.47a8.1,8.1,0,0,0,1.44,3.23c.15.27,1.32,1.88,1.32,1.57l-.9-31.88-.12-4.47a8.1,8.1,0,0,0-1.44-3.23c-.15-.27-1.32-1.88-1.31-1.57Z" transform="translate(-243.01 -71.13)"/>
  <path class="cls-15" d="M395.56,446.53c3.33,10,7.83,20.22,15.13,28,4.53,4.81,10.3,8.42,17,9.19,11.53,1.32,22.56-5.07,31.21-12a92,92,0,0,0,9.34-8.64,20,20,0,0,0,2-2.21c.4-.55.19-1.13,0-1.75-.08-.27.15.51.07.21,0-.08-.05-.16-.07-.25s-.12-.42-.17-.63c-.14-.56-.26-1.12-.37-1.69,0-.14,0-.29-.08-.44-.06-.33,0,.14-.05-.31s-.13-.84-.18-1.26c-.12-.93-.2-1.86-.26-2.79a47.81,47.81,0,0,1,1.68-15.43c4.95-18.17,19.09-32.16,34.36-42.3,2.88-1.92,5.84-3.72,8.85-5.43.71-.4-1.34-4.18-2-3.81-16.16,9.18-31.78,21.59-39.93,38.72a50.71,50.71,0,0,0-4.85,28.43,30.06,30.06,0,0,0,1.29,5.86l-.08-1.16a80.9,80.9,0,0,1-17.61,15.52c-5.25,3.44-11.07,6.29-17.3,7.34a25.22,25.22,0,0,1-18.44-3.82c-9.34-6.33-14.22-17.45-17.68-27.79-.25-.73-.78-2.15-1.53-2.52s-.44.58-.29,1Z" transform="translate(-243.01 -71.13)"/>
  <path class="cls-15" d="M490.57,383.5C477,391.25,464,401,455,414a55.58,55.58,0,0,0-10.09,26,39.14,39.14,0,0,0,.89,14.1c0,.12.32,1,.21.49-.08-.33,0-.14,0,0s-.06.44-.1.66a12.52,12.52,0,0,1-2.32,5.13s-.2.25-.43.51-.52.57-.79.83a15.17,15.17,0,0,1-1.82,1.49,16.73,16.73,0,0,1-4.81,2.34c-5.61,1.77-11.53,1.51-17.39.7-2.08-.29-4.15-.68-6.2-1.13l4,2.46c-4.82-9.06-11.6-17.82-20.09-23.67-6.14-4.24-14.75-7.26-22.1-4.55-7.56,2.8-11.95,10.09-17.86,15.11a22,22,0,0,1-10.7,5.29,11.79,11.79,0,0,1-2,.1c.63,0-.3,0-.49-.05l-1.08-.14c-.88-.12.61.11-.25,0l-1.45-.25c-.63-.11-1.26-.21-1.89-.26-6.89-.54-13.16,3.93-16.41,9.79A32.83,32.83,0,0,0,318,487.76a14.89,14.89,0,0,0,2.69,7.54c2.24,2.9,5.91,4.45,9.47,4.9.82.11,1.64.17,2.46.3-.68-.11.53.1.68.13l1.24.28c.22.06,1.37.39.57.15.4.12.81.24,1.21.38l1.2.43.44.17c.44.16-.56-.25.11,0s1.56.69,2.33,1.07l.74.38.3.17.71.4c.74.44,1.48.9,2.21,1.37l.94.64c.53.37.54.37.83.59A80,80,0,0,1,361,521.51a163.21,163.21,0,0,1,11.06,16c2.26,3.67,4.32,7.49,6.71,11.09s6.6,4.84,10.72,5.15c5.41.41,10.89-.22,16.28-.72,7.07-.66,14.14-1.35,21.24-1.6,3.58-.12,7.55-.14,10.83,0,1.85.1,3.69.25,5.53.46.85.09,1.7.2,2.54.33.45.06.9.13,1.34.21-.58-.1.59.11.76.15.87.17,1.74.35,2.6.56.42.1.85.21,1.27.33l.63.17c-.34-.1-.39-.12,0,0,.82.26,1.63.51,2.44.81.4.14.79.29,1.19.45-.77-.3.28.13.52.24.76.34,1.51.7,2.24,1.09-.63-.34.41.24.55.32l1.05.65a14.76,14.76,0,0,1,1.6,1.12c.83.65,1.61,1.34,2.43,2a51.39,51.39,0,0,0,27.24,10.69c15,1.24,30-3.87,42.74-11.46,1.7-1,3.36-2.07,5-3.2l-6.84-2.36c1,6.19-.3,13-2,19.13a68.56,68.56,0,0,1-11,22.92c-5.21,6.91-12.37,12.61-20.8,14.93a34.18,34.18,0,0,1-13.82.87l-1-.14c-.18,0-.94-.16-.38-.06-.76-.14-1.52-.29-2.27-.47s-1.33-.33-2-.5.31.11-.39-.11l-1.19-.37a54.16,54.16,0,0,1-8.74-3.62c-7.83-3.91-15.78-7.25-24.37-9.08a80.63,80.63,0,0,0-22.13-1.64c-12.11.79-23.59,4.42-35,8.38a115.73,115.73,0,0,1-13.47,4.15,21.64,21.64,0,0,1-5.34.67h-.62c-.19,0,.58,0,0,0-.77-.07-1.55-.14-2.32-.25a33.88,33.88,0,0,1-4.92-1.13c-7.45-2.35-14.29-6.76-20.31-11.88a86.74,86.74,0,0,1-8.63-8.41c-2.39-2.67-4.42-5.59-6.6-8.43a27.49,27.49,0,0,0-7.54-7.16,22.73,22.73,0,0,0-9.63-2.88c-4.83-.43-9.68-.55-14.51-1.11a71.36,71.36,0,0,1-8.79-1.49c-.75-.17-1.5-.35-2.24-.55l-.84-.23-.28-.08-.94-.29c-.76-.24-1.52-.5-2.27-.77s-1.56-.58-1.92-.73a43.2,43.2,0,0,1-17.07-12.6c-8.81-11.1-10.11-25.89-8.7-39.52a91.16,91.16,0,0,1,1.32-9.19,26.2,26.2,0,0,1,4.11-9.1c3.63-5.37,8.45-10.1,10.26-16.49,2-7.1.33-14.9-1.52-21.84-2-7.6-4.81-15.07-5.92-22.89-2.34-16.52,4.38-33,14.67-45.67a101.65,101.65,0,0,1,32-26.32,96.25,96.25,0,0,1,33.38-10,110.57,110.57,0,0,1,30.84.88l.52.09.5.09,1.88.35c1.14.22,2.27.46,3.4.71,2.1.47,4.18,1,6.25,1.58.69.19-.71-.21,0,0l.69.21,1.57.48c.9.28,1.79.58,2.68.88s1.75.62,2.62.95l1.15.44a5,5,0,0,0,.66.26c-.06.07-.93-.38-.11,0q2.13.89,4.2,1.89l.94.48.42.22c.62.31-.64-.36-.2-.11s1.07.6,1.6.92a53.69,53.69,0,0,1,15.25,14.71,69.34,69.34,0,0,1,6.13,10.24A107.77,107.77,0,0,1,424,395.93c2.41,6.67,5.41,13.32,9.77,19a34.53,34.53,0,0,0,17.29,12.18c.86.26,3.52,1.13,4-.15s-2.41-2.39-3.07-2.59c-.39-.12-.78-.23-1.16-.37l-.56-.2c-.62-.23.43.19-.18-.07s-1.43-.65-1.83-.88a23.58,23.58,0,0,1-3.78-2.73,36.44,36.44,0,0,1-6.57-8c-3.94-6.2-6.09-13.05-8.72-19.84-5.22-13.48-14.75-26.5-27.52-33.67a94.82,94.82,0,0,0-21.6-8.38,128.43,128.43,0,0,0-30.2-4.37,109.21,109.21,0,0,0-34.15,4.36,97.54,97.54,0,0,0-34.31,18.38c-12,10-22.88,22.93-27.53,38.06a55.3,55.3,0,0,0-2.06,24.44c1.22,7.9,4.06,15.44,6.06,23.15,1.85,7.14,3.39,15.05.59,22.15-2.46,6.23-7.55,10.84-10.88,16.55s-3.88,12.58-4.37,19a70.27,70.27,0,0,0,1.13,20.57,43.47,43.47,0,0,0,9.73,19.52,54,54,0,0,0,19.46,13.63,81.61,81.61,0,0,0,20.94,5.51c5.16.69,10.34.88,15.52,1.28.89.07,1.78.13,2.65.26.51.08-.18-.11.5.11-.62-.2.49.21-.14,0,.52.21,0,0,.5.25.3.18.55.35.73.48,2.7,2,4.64,5,6.61,7.64a88,88,0,0,0,17,17.34,70.91,70.91,0,0,0,23.38,12.34c5.77,1.67,11.49,2.41,17.4,1.28a96.69,96.69,0,0,0,13.52-4c5.33-1.85,10.66-3.73,16.11-5.23,13-3.6,26.61-4.76,39.74-1.5a68.72,68.72,0,0,1,10.9,3.71c3.77,1.64,7.35,3.68,11.13,5.31a64,64,0,0,0,19.17,5.26,39.66,39.66,0,0,0,27.93-7.49c7.14-5.37,12.48-13,16.23-21a69.41,69.41,0,0,0,6.38-22.88,34.85,34.85,0,0,0-.14-8.6c-.18-1.09-2.23-1.9-3.07-2.19-1-.35-2.78-.86-3.77-.17a84.44,84.44,0,0,1-21.48,10.86,62.45,62.45,0,0,1-16.17,3.33,44.27,44.27,0,0,1-8.22-.25,33.31,33.31,0,0,1-8-2,38.2,38.2,0,0,1-7.55-4.14c-2.32-1.66-4.39-3.61-6.82-5.13a50.33,50.33,0,0,0-15-6.05c-10.43-2.53-21.37-2.51-32-1.87-9.09.55-18.15,1.89-27.26,2.16-.73,0-1.46,0-2.18,0-.24,0-1.58-.06-.6,0l-1.1-.07-1-.11c-.85-.09.82.14,0,0s-.48-.12.15.08c-1.11-.35.61.32,0,0-.27-.13.9.57.22.11.88.6.52.38.33.21s.37.48.22.24-.45-.57-.66-.86c-.62-.89-1.18-1.83-1.75-2.76-9.24-15.32-18.65-31.09-33.54-41.64a49.63,49.63,0,0,0-14-7.06,45.54,45.54,0,0,0-8.41-1.75l-.79-.08c.83.1.43.06.22,0,1.05.21-.11-.23.84.31-.19-.11-.87-.47,0,0-.74-.42.25.29-.38-.28-.07-.06-.54-.57-.16-.14a7.41,7.41,0,0,1-.55-.68c-2.15-2.95-2.4-7.51-2.1-11.16a33.07,33.07,0,0,1,3.78-13.14c2.15-3.92,5.9-7.42,10.32-8.54a4.45,4.45,0,0,1,.87-.18c.25,0,1.64,0,.85-.05.37,0,.74.07,1.11.13l.67.1c-1-.16-.11,0,.11,0a24,24,0,0,0,7,.47c6-.67,11.09-3.92,15.3-8.05,3.94-3.86,7.4-8.48,12.2-11.36a13.28,13.28,0,0,1,7-2c.94,0-.31,0,.24,0l.74.07c.12,0,1.08.19.28,0l.87.19.57.15c-.94-.26,0,0,.19.08l.85.31c-.86-.33,0,0,.19.11s.56.26.83.39c.92.43-.58-.35.3.15.45.27.9.53,1.34.81a23.1,23.1,0,0,1,2.72,2,47.14,47.14,0,0,1,5,4.75,79,79,0,0,1,7.87,10.25c.75,1.15,1.48,2.32,2.17,3.5.21.36.41.72.62,1.07.3.54.14.19,0,.08a6.28,6.28,0,0,0,2.15,1.81,16.21,16.21,0,0,0,3.87,1.06q2.78.56,5.56,1a71,71,0,0,0,9.56.73A33.87,33.87,0,0,0,443,468.52c4.35-1.75,8.22-4.89,9.68-9.49a8.13,8.13,0,0,0,.45-2.19,8.65,8.65,0,0,0-.44-2,37.62,37.62,0,0,1-.72-11.74c1.53-18.16,13.36-33.36,27.14-44.41a139.3,139.3,0,0,1,18.1-12.12c1.29-.73-1.44-2.32-1.9-2.54-1.27-.59-3.34-1.31-4.69-.54Z" transform="translate(-243.01 -71.13)"/>
  <polygon class="cls-16" points="221.18 279.64 230.22 288.18 190.47 323.34 221.18 279.64"/>
  <path class="cls-17" d="M421,480.08c-7.39,5.61-5.35,24.21-5.35,24.21" transform="translate(-243.01 -71.13)"/>
  <path class="cls-17" d="M436.28,482.12c-7.39,5.6-5.35,24.2-5.35,24.2" transform="translate(-243.01 -71.13)"/>
  <g>
    <path class="cls-8" d="M492.86,606.72c-.95-.4-4.37-1.66-9.4-4l-4-2c-1.45-.72-2.9-1.5-4.52-2.33-3.11-1.63-6.55-3.51-10-5.28a92.21,92.21,0,0,0-10.75-4.84,34.56,34.56,0,0,0-10.73-2.13c-.91,0-1.84.08-2.79.07a9.06,9.06,0,0,0-1.44.16l-1.48.19c-.41,0-1.22.21-1.89.34l-2.1.41c-1.4.27-2.9.61-4.37.92-6,1.31-12.51,2.95-19.83,4.45a128.78,128.78,0,0,1-24.71,2.94,70.92,70.92,0,0,1-29.28-5.79,20.17,20.17,0,0,1-1.85-.85L351.8,588c-1.26-.61-2.36-1.34-3.55-2a77.42,77.42,0,0,1-6.37-4.42c-3.93-3-7.23-6.05-10.13-8.56a56.74,56.74,0,0,0-7.67-5.87,14.27,14.27,0,0,0-1.63-.91,16.19,16.19,0,0,0-1.57-.7,3.32,3.32,0,0,0-.78-.28l-.77-.26c-.33-.12-.34-.08-.47-.14l-.35-.06-.42-.07c-1.27-.21-3.15-.41-5.19-.59s-4.32-.35-6.88-.64l-2-.25-1-.15-1.14-.19c-.72-.11-1.62-.3-2.46-.48-.42-.09-1-.24-1.44-.37l-1.13-.31-1.71-.51-1.91-.6q-1.94-.63-3.9-1.38a61.48,61.48,0,0,1-15.8-8.71,42.91,42.91,0,0,1-7.56-7.42A36.76,36.76,0,0,1,257.78,521c0-1,0-1.92.05-2.88l.06-1.43c0-.47.11-.91.16-1.37.12-.9.24-1.81.38-2.71s.37-1.71.56-2.56A60,60,0,0,1,266.3,493l1.11-1.83c.38-.59.77-1.14,1.16-1.71.78-1.11,1.55-2.3,2.36-3.35l2.43-3.16.56-.73.26-.35a6.56,6.56,0,0,0,.5-.69,10.65,10.65,0,0,0,1.31-2.42,8.82,8.82,0,0,0,.52-2.34,23.93,23.93,0,0,0-1-7.83c-.9-3.41-2.33-7.46-3.82-12a116.46,116.46,0,0,1-4.11-15.16,77.8,77.8,0,0,1-1.32-16.86,69.9,69.9,0,0,1,2.7-17.19A67.35,67.35,0,0,1,276,391.43a69.46,69.46,0,0,1,10.61-13.22,77.46,77.46,0,0,1,12.75-10,89.68,89.68,0,0,1,28.08-11.45,96.36,96.36,0,0,1,28.47-2.11,89.34,89.34,0,0,1,26.78,6.13,76.82,76.82,0,0,1,22.6,14,72.78,72.78,0,0,1,8.71,9.35c1.29,1.64,2.46,3.35,3.59,5l1.45,2.3c.45.76.9,1.5,1.35,2.25,3.45,5.89,6.16,11.18,8.69,15.86s4.8,8.73,7,12a43.38,43.38,0,0,0,5.83,7.37,18.22,18.22,0,0,0,2.14,1.8,9,9,0,0,0,1.44.78,5.22,5.22,0,0,0,1.77.4,12.8,12.8,0,0,0,2.15-.25,20.86,20.86,0,0,1-2.06,1,5.94,5.94,0,0,1-2.92.47,8.45,8.45,0,0,1-1.3-.32,11.46,11.46,0,0,1-1.5-.58c-.53-.32-1.08-.55-1.65-1a36.58,36.58,0,0,1-7.09-6.32,111.67,111.67,0,0,1-7.06-8.78c-2.56-4.74-5.07-9.77-7.84-14.9-1.39-2.58-2.86-5.19-4.48-7.83-.77-1.28-1.76-2.72-2.69-4.09s-2-2.69-3.07-4a67.31,67.31,0,0,0-14.91-13.24,76.77,76.77,0,0,0-8.62-4.83,83.15,83.15,0,0,0-9.09-3.63A89,89,0,0,0,337,360.09a86,86,0,0,0-36.42,12.79,70,70,0,0,0-15.28,13.2,62.32,62.32,0,0,0-10.74,17.78,59,59,0,0,0-3,10,63,63,0,0,0-1.31,10.27,68.71,68.71,0,0,0,.24,10.16c.13,1.68.37,3.32.62,5s.58,3.33.93,4.93c1.45,6.43,3.47,12.12,5.08,17.23s2.81,9.63,2.87,13a13.56,13.56,0,0,1-.51,4.37,13.1,13.1,0,0,1-1.87,3.85,12,12,0,0,1-.73,1L275.85,485c-1,1.27-2,2.5-3,3.8s-1.9,2.68-2.83,4.05-1.8,2.86-2.65,4.37l-1.24,2.34-.61,1.17L265,502l-1.1,2.53c-.35.86-.65,1.8-1,2.7a25.33,25.33,0,0,0-.84,2.83c-.24,1-.5,1.95-.7,3s-.32,2.1-.45,3.15-.15,2.2-.2,3.29a34.06,34.06,0,0,0,2.52,13.61,36.05,36.05,0,0,0,7.38,11.23,47.32,47.32,0,0,0,9.29,7.44,63,63,0,0,0,9.6,4.83c1.61.66,3.21,1.24,4.81,1.77.79.27,1.59.52,2.34.75l1,.3,1.63.45a73.59,73.59,0,0,0,10.43,1.61c2.91.3,5.64.53,7.76.85a16.05,16.05,0,0,1,2.24.45,22.83,22.83,0,0,1,2.29.87,24.68,24.68,0,0,1,4.73,2.72,63.77,63.77,0,0,1,5.34,4.3c3.83,3.33,8.27,7.67,14,11.76a62.59,62.59,0,0,0,9.57,5.59q2.52,1.07,5.07,2.09c1.71.61,3.47,1.1,5.21,1.63a74.45,74.45,0,0,0,20.9,2.39,125.31,125.31,0,0,0,19.09-2c6-1.06,11.69-2.34,17.12-3.53,2.71-.59,5.39-1.18,8-1.69,1.32-.28,2.59-.51,3.87-.74l1.91-.35c.58-.09,1-.11,1.47-.17a30.08,30.08,0,0,1,11.09.61A59.28,59.28,0,0,1,461.65,591C470.5,595.36,480.73,601.85,492.86,606.72Z" transform="translate(-243.01 -71.13)"/>
    <path class="cls-8" d="M437.94,578.77,436,579c-1.08.19-2.64.52-4.5.89-3.79.79-9,2-15.77,3.57-1.69.39-3.46.79-5.35,1.19s-3.87.8-5.95,1.2a125.42,125.42,0,0,1-13.83,1.87,74.29,74.29,0,0,1-16.51-.46,60,60,0,0,1-9-2c-.76-.23-1.52-.44-2.28-.7l-2.24-.89-2.26-.91c-.75-.3-1.5-.73-2.26-1.09-1.55-.73-3-1.62-4.41-2.48s-2.81-1.84-4.09-2.83c-2.65-2-5.07-4-7.37-6-4.62-4.07-8.79-7.78-13.1-10.24l-1.63-.83c-.54-.3-1.1-.47-1.64-.72a11.61,11.61,0,0,0-1.68-.6c-.55-.18-1.17-.4-1.57-.48a38.29,38.29,0,0,0-3.83-.58c-1.47-.16-3-.3-4.7-.44s-3.38-.29-5.21-.5a51.26,51.26,0,0,1-6-1l-1.73-.45-1.21-.36c-.89-.26-1.8-.55-2.71-.85q-2.75-.9-5.48-2.07a54.53,54.53,0,0,1-10.82-6.08A35.67,35.67,0,0,1,269.47,535a29.46,29.46,0,0,1-4.11-14.47,37.77,37.77,0,0,1,2.54-13.72,63.84,63.84,0,0,1,5.73-11.25c.53-.88,1.12-1.67,1.69-2.51s1.12-1.69,1.73-2.45l3.33-4.34c3.21-4.33,4.26-8.46,3.55-14.1s-3.2-12.16-5.52-19.27a110.13,110.13,0,0,1-3.12-11.32,74.74,74.74,0,0,1-1.47-12.11,61.57,61.57,0,0,1,3.85-24.2A59.85,59.85,0,0,1,290.6,385a70.66,70.66,0,0,1,18.21-13.47,83.23,83.23,0,0,1,19.94-7.29,88.35,88.35,0,0,1,38.4-.34,78,78,0,0,1,16.49,5.54,68.85,68.85,0,0,1,13.54,8.37,64.45,64.45,0,0,1,10.06,9.93c.69.85,1.32,1.71,2,2.55s1.18,1.7,1.75,2.53c1.07,1.62,2,3.12,2.84,4.56,3.37,5.75,5.62,10.15,7.21,13.1l2.41,4.47c-3.74-5.16-7.43-10.66-11.54-16.07-1-1.36-2.1-2.71-3.2-4l-1.76-2c-.59-.67-1.22-1.3-1.83-1.95a60.21,60.21,0,0,0-8-6.83A65.72,65.72,0,0,0,372.32,370a76.5,76.5,0,0,0-13.9-3,85.47,85.47,0,0,0-28.29,1.24,79.44,79.44,0,0,0-13.66,4.18,68.46,68.46,0,0,0-24,16,57.41,57.41,0,0,0-8.71,11.94,54.25,54.25,0,0,0-5.26,13.92A60,60,0,0,0,277,428.92a72.6,72.6,0,0,0,1.86,14.5c2.19,9.39,5.87,17.8,7.36,25.65a25.3,25.3,0,0,1,0,10.82,19.32,19.32,0,0,1-1.84,4.74,25.48,25.48,0,0,1-1.42,2.24c-.24.38-.54.73-.82,1.09l-1,1.23A81.36,81.36,0,0,0,273,501.27a43.16,43.16,0,0,0-5.18,14.94,33.47,33.47,0,0,0-.29,4.29,29.93,29.93,0,0,0,.43,4.41,27.75,27.75,0,0,0,1.12,4.37,29.49,29.49,0,0,0,1.86,4.08,30.87,30.87,0,0,0,5.24,6.88,41.24,41.24,0,0,0,6.35,5.08,60,60,0,0,0,13.78,6.51c1.15.39,2.41.76,3.39,1.06a34,34,0,0,0,4.17,1c2.59.44,4.93.67,7.21.9s4.46.43,6.48.69c1,.14,2,.28,2.79.46.44.08.75.18,1.11.26l1.24.43a32.6,32.6,0,0,1,9.58,5.36c3.15,2.42,6.3,5.37,9.78,8.45a78.19,78.19,0,0,0,11.92,9,45.38,45.38,0,0,0,7.11,3.48,60.31,60.31,0,0,0,7.41,2.5,72.41,72.41,0,0,0,15.23,2,108.76,108.76,0,0,0,14.69-1c4.73-.68,9.36-1.53,13.87-2.47L425.5,581c2.17-.47,4.3-.89,6.43-1.31l3.17-.58c.26,0,.54-.11.78-.14l.69-.08Z" transform="translate(-243.01 -71.13)"/>
    <path class="cls-8" d="M382.47,580.72l-1.94-.06c-.5,0-1.08,0-1.74-.09l-2.22-.25a50.73,50.73,0,0,1-13.07-3.24,44.55,44.55,0,0,1-8.28-4.16,79.29,79.29,0,0,1-8.45-6.42c-2.83-2.42-5.7-5.06-8.82-7.58a45.33,45.33,0,0,0-10.43-6.62,25.74,25.74,0,0,0-3-1.14l-1.55-.5c-.51-.12-1-.25-1.56-.35-2.15-.41-4.47-.63-6.83-.84s-4.81-.4-7.31-.69c-1.24-.15-2.52-.33-3.81-.58-.64-.13-1.3-.28-2-.47l-1.83-.53a56.72,56.72,0,0,1-14.61-6.51,33.38,33.38,0,0,1-6.46-5.42,23.55,23.55,0,0,1-4.62-7.42,22.35,22.35,0,0,1-1.4-8.79,29.13,29.13,0,0,1,1.69-8.7A56.93,56.93,0,0,1,282.67,495l2.68-3.47,1.24-1.64c.37-.57.77-1.13,1.12-1.71a25.14,25.14,0,0,0,3.05-7.48c1.16-5.31.36-10.95-1.14-16.41s-3.57-10.91-5.27-16.5a71,71,0,0,1-3.29-17.25,55.6,55.6,0,0,1,1.57-17.28,49,49,0,0,1,2.82-8.09,48.1,48.1,0,0,1,4.05-7.4,60.55,60.55,0,0,1,24-20.6,79.41,79.41,0,0,1,27.26-7.65,80.85,80.85,0,0,1,23.88,1.17,70.61,70.61,0,0,1,17.48,6,61.42,61.42,0,0,1,10.09,6.35c1.07.87,1.92,1.51,2.44,2l.8.72a62.18,62.18,0,0,0-28.9-10.67,77.73,77.73,0,0,0-41.45,1.08,68.62,68.62,0,0,0-18.92,9A54.2,54.2,0,0,0,291.55,400a48.3,48.3,0,0,0-7.4,19.52,60.08,60.08,0,0,0,.84,21.08c1.48,7,4.07,13.68,6.09,20.62a58.17,58.17,0,0,1,2.18,10.65,26.56,26.56,0,0,1-3.05,15.85,33.49,33.49,0,0,1-3,4.5l-3.33,4.24-1.55,2.2c-.52.72-1,1.46-1.49,2.23l-1.42,2.29-1.27,2.38a49.32,49.32,0,0,0-2.17,4.93,27.15,27.15,0,0,0-1.82,10.59,20.34,20.34,0,0,0,3.25,10.26l.76,1.13c.27.37.57.72.85,1.08a26.89,26.89,0,0,0,1.83,2,32.37,32.37,0,0,0,4.19,3.48,40,40,0,0,0,4.65,2.83,50,50,0,0,0,4.93,2.29c1.68.69,3.39,1.29,5.12,1.84a37.08,37.08,0,0,0,5.3,1.36c3.6.6,7.2.85,10.75,1.23,1.78.19,3.56.4,5.28.72a31.91,31.91,0,0,1,5,1.45c6.58,2.53,12,7.21,17.33,12s10.85,9.75,17.63,13A55.55,55.55,0,0,0,382.47,580.72Z" transform="translate(-243.01 -71.13)"/>
    <path class="cls-8" d="M353.18,563.68c-.36-.26-1.53-1.21-3.43-2.84s-4.51-4-8.08-6.91c-.89-.72-1.88-1.46-2.9-2.22s-2.13-1.54-3.38-2.26a40.83,40.83,0,0,0-8.36-4l-2.43-.77-1.35-.33-1.31-.25c-1.72-.29-3.4-.48-5.09-.65-3.35-.33-6.77-.54-10.05-1-.82-.11-1.62-.24-2.36-.4-.39-.07-.74-.16-1.07-.25l-1.25-.36c-1.72-.5-3.37-1-5-1.66a44,44,0,0,1-9.49-4.89,24.3,24.3,0,0,1-4-3.39,17.7,17.7,0,0,1-3-4.07,14.81,14.81,0,0,1-1.6-4.69l-.12-.62-.05-.64c0-.42-.08-.85-.09-1.28a22,22,0,0,1,.17-2.66,32.14,32.14,0,0,1,3.76-11,70.86,70.86,0,0,1,7.12-10.62l1.11-1.45c.39-.52.79-1,1.15-1.59a34.37,34.37,0,0,0,2.05-3.42,29.64,29.64,0,0,0,2.76-7.67,37.27,37.27,0,0,0-.42-15.71,131,131,0,0,0-4.11-13.8,122.45,122.45,0,0,1-3.76-12.74,53.89,53.89,0,0,1,0-24.4,45.56,45.56,0,0,1,4.18-10.75,48.42,48.42,0,0,1,6.46-9,56.93,56.93,0,0,1,16.42-12.31,70,70,0,0,1,16.6-5.91,76.23,76.23,0,0,1,13.54-1.78,73.24,73.24,0,0,1,8.77.16c1,.08,1.79.14,2.3.21l.79.09a73.29,73.29,0,0,0-22.73,3.92,64,64,0,0,0-28,12.15,44.3,44.3,0,0,0-16.16,24.33,47.82,47.82,0,0,0-1.18,7.39,55.2,55.2,0,0,0,0,7.61,65.92,65.92,0,0,0,1.06,7.66c.52,2.54,1.22,5.13,2,7.77,1.59,5.29,3.63,10.75,5.12,16.87a51.09,51.09,0,0,1,1.47,9.71,33.27,33.27,0,0,1-1.11,10.47,32.44,32.44,0,0,1-4.45,9.56c-.48.72-1,1.41-1.51,2.07l-1.39,1.79c-.82,1.06-1.71,2.1-2.47,3.18A48.31,48.31,0,0,0,281,513.75a22.6,22.6,0,0,0-1.08,6.68,14.41,14.41,0,0,0,1.37,6.06c1.77,3.8,5.44,7.09,9.83,9.6a46.13,46.13,0,0,0,7,3.28c1.24.47,2.49.9,3.79,1.3a25.83,25.83,0,0,0,3.59.93c2.46.46,5.27.72,8.13,1s5.8.53,9.07,1.18a21.77,21.77,0,0,1,2.5.63l2.35.78c.78.26,1.51.62,2.27.94l1.13.48,1.08.56a50.63,50.63,0,0,1,8,5.15C344.87,556.08,349,560.21,353.18,563.68Z" transform="translate(-243.01 -71.13)"/>
    <path class="cls-8" d="M331.59,541.22l-1.45-.59c-.74-.3-1.78-.59-3.05-1l-1-.31-1.25-.31c-.46-.11-.85-.18-1.28-.26s-.88-.17-1.29-.23c-1.74-.28-3.5-.47-5.35-.65l-5.72-.5c-1-.09-2-.19-2.9-.31l-1.39-.18c-.41-.08-.9-.14-1.24-.22l-.55-.12-.42-.11-1.66-.48c-1.07-.31-2.09-.65-3.14-1a44.42,44.42,0,0,1-6.13-2.7c-3.93-2.11-7.3-5-8.57-7.94a10.62,10.62,0,0,1-.9-5,21.28,21.28,0,0,1,1.65-6.73,45.34,45.34,0,0,1,4.12-7.64c.91-1.28,1.73-2.6,2.77-3.87l1.49-1.94,1-1.32c.36-.48.73-.93,1.06-1.45a39.44,39.44,0,0,0,3.67-6.51,35.5,35.5,0,0,0,2.3-7.4,41.07,41.07,0,0,0,0-14.67,88.12,88.12,0,0,0-3.16-12.19c-1.2-3.7-2.41-7.12-3.42-10.37a72.45,72.45,0,0,1-2.33-9.22,54,54,0,0,1-.8-8.82,41.32,41.32,0,0,1,2.86-15.72,40.25,40.25,0,0,1,7.52-12.06,48.56,48.56,0,0,1,9.44-8.08,58.18,58.18,0,0,1,8.66-4.72c2.54-1.1,4.61-1.81,6-2.28s2.19-.67,2.19-.67a58.37,58.37,0,0,0-14.26,8.94,43.49,43.49,0,0,0-15.21,14.85,38.6,38.6,0,0,0-5.33,20.13,51.64,51.64,0,0,0,1.23,11.13c.83,3.77,2.11,7.8,3.54,12.18a126.3,126.3,0,0,1,4.1,14.68,51.51,51.51,0,0,1,1,8.89,38.45,38.45,0,0,1-1.09,9.72,36.78,36.78,0,0,1-3.64,9.21c-.4.69-.8,1.4-1.23,2.06l-1.32,2-1.4,1.82-1.05,1.34-1.89,2.39-1.7,2.41c-.61.8-1,1.61-1.56,2.42a24.44,24.44,0,0,0-1.37,2.4,25,25,0,0,0-3,8.86,12.5,12.5,0,0,0,.18,3.41,9.87,9.87,0,0,0,1.29,3,19.31,19.31,0,0,0,6.56,5.89,47.09,47.09,0,0,0,10.38,4.44l.82.25.59.17c.21.07.6.15,1,.23.79.16,1.68.31,2.68.44,2,.26,4.2.47,6.55.7s4.82.48,7.68,1c.77.16,1.45.27,2.32.5s1.55.43,2.26.66l2.13.71C330.23,540.63,330.9,540.94,331.59,541.22Z" transform="translate(-243.01 -71.13)"/>
    <path class="cls-8" d="M311.7,533c-.27,0-1.23-.1-2.57-.25l-1-.13-.55-.08-.51-.09c-.39,0-.61-.12-.9-.17l-.24-.06-1-.28c-1.2-.35-2.32-.7-3.54-1.14s-2.46-.93-3.69-1.51a25,25,0,0,1-6.57-4.23,9.6,9.6,0,0,1-1.75-2.21,5.89,5.89,0,0,1-.7-2,11.11,11.11,0,0,1,.2-3.15c.09-.35.18-.7.25-1.06s.26-.76.37-1.15a25,25,0,0,1,1-2.5c.39-.88.92-1.8,1.37-2.72s1.13-1.89,1.75-2.85,1.31-1.93,2-2.91l2.29-3a44.08,44.08,0,0,0,6.68-11.35,40.14,40.14,0,0,0,2.77-13.53,52.34,52.34,0,0,0-1.2-12.24,98.31,98.31,0,0,0-2.73-9.95c-1.95-6-3.78-11-4.86-15.42A49.39,49.39,0,0,1,297,426.8a38.33,38.33,0,0,1,1.37-10.27,35.68,35.68,0,0,1,7.06-13.31,41.76,41.76,0,0,1,3-3.2l.84-.81.31-.26a41.44,41.44,0,0,0-3.34,4.84,37,37,0,0,0-2.4,5A33.6,33.6,0,0,0,299,422.76a41.82,41.82,0,0,0-.17,7.94l.18,2.06.29,2.08c.22,1.36.47,2.69.84,4.15.69,2.89,1.67,6,2.79,9.48s2.38,7.21,3.49,11.5c.56,2.16,1.07,4.43,1.46,6.88a52.59,52.59,0,0,1,.66,7.86,41.3,41.3,0,0,1-3.47,17.09,43.73,43.73,0,0,1-4.19,7.4c-.39.59-.8,1.11-1.21,1.64l-1.16,1.48-1.43,1.82c-1,1.2-1.78,2.41-2.66,3.61-.45.6-.75,1.2-1.15,1.79s-.77,1.19-1,1.76a24.5,24.5,0,0,0-2.64,6.3,8.27,8.27,0,0,0-.23,3.84,6.44,6.44,0,0,0,1.74,3,20.37,20.37,0,0,0,5.11,3.81,43.86,43.86,0,0,0,7.62,3.21l1.13.35c.29.09,1.17.36,1.07.32l.16.06.32.07c.18.05.48.1.77.16C308.44,532.66,310,532.86,311.7,533Z" transform="translate(-243.01 -71.13)"/>
  </g>
  <g>
    <path class="cls-8" d="M337.46,432.09c.13-.17.61-.73,1.4-1.63a47.54,47.54,0,0,1,3.32-3.55l2.4-2.31,3-2.49c1-.91,2.27-1.71,3.51-2.61.63-.44,1.25-.92,1.95-1.34l2.12-1.28A58.26,58.26,0,0,1,377,409.15l3.3-.28c.55,0,1.11-.1,1.67-.12l1.69,0,3.43.09c1.14.12,2.29.28,3.44.43l1.73.25c.58.08,1.14.26,1.71.39,1.14.28,2.27.58,3.41.87s2.21.78,3.31,1.18l1.65.63.81.32.78.39,3.09,1.61c.51.27,1,.52,1.52.83l1.42.94,2.81,1.91c.93.64,1.8,1.43,2.69,2.14a64.77,64.77,0,0,1,8.65,9.15,103.94,103.94,0,0,1,6.23,8.91c1.81,2.84,3.33,5.51,4.73,8,2.75,4.88,4.85,8.82,6.34,11.47.74,1.34,1.32,2.36,1.72,3l.6,1c-2.68-1.93-5.39-4.08-8.12-6.26-4.06-8-8.17-16.43-14.07-24.49-.72-1-1.55-2-2.33-3s-1.69-2-2.56-2.92-1.84-1.91-2.86-2.81a36.55,36.55,0,0,0-3.14-2.59l-3.29-2.36c-1.14-.73-2.37-1.36-3.56-2-.6-.32-1.19-.69-1.82-1l-1.91-.8-1.93-.8c-.32-.12-.64-.27-1-.38l-1-.29c-1.34-.39-2.69-.78-4-1.13l-4.15-.69c-.34-.05-.69-.12-1-.15l-1-.07-2.09-.11c-.7,0-1.41-.08-2.1-.08l-2.08.1a53.85,53.85,0,0,0-8.23,1.05l-4,1c-1.32.37-2.57.87-3.86,1.31a63,63,0,0,0-14.21,7.54A73.4,73.4,0,0,0,337.46,432.09Z" transform="translate(-243.01 -71.13)"/>
    <path class="cls-8" d="M352,425.15a56.44,56.44,0,0,1,15.27-8.42,48.41,48.41,0,0,1,16.92-2.88,43.15,43.15,0,0,1,19,4.79l2.22,1.16c.73.4,1.39.9,2.08,1.35a38.83,38.83,0,0,1,4,2.88c1.31,1,2.42,2.14,3.58,3.22s2.16,2.22,3.09,3.37a98.17,98.17,0,0,1,9.11,12.81c2.33,3.83,4.08,7,5.32,9.26s1.91,3.48,1.91,3.48l-6.61-5.28c-3.38-6.43-6.94-12.9-11.72-18.83a46.73,46.73,0,0,0-8.28-8.16,38.9,38.9,0,0,0-4.92-3.27l-2.6-1.46L397.59,418l-1.39-.58a14,14,0,0,0-1.43-.45l-2.91-.84c-1-.28-2-.37-3-.56a23.5,23.5,0,0,0-3-.41l-3-.17-.76,0-.75,0-1.51.07c-1,.08-2,.05-3,.22l-3,.46a24.59,24.59,0,0,0-2.95.64c-1,.26-2,.46-2.91.78a55.71,55.71,0,0,0-5.61,2.12l-2.73,1.24L357,422l-1.31.72c-.43.25-.84.54-1.25.81Z" transform="translate(-243.01 -71.13)"/>
    <path class="cls-8" d="M364.49,423.12l1.05-.54c.59-.27,1.44-.59,2.48-1l1.71-.67,2-.59c.73-.2,1.49-.47,2.32-.64l2.59-.49c.45-.08.91-.18,1.38-.25l1.45-.12c1-.07,2-.21,3-.22l3.21.08a10.18,10.18,0,0,1,1.64.14l1.67.22,1.7.24,1.68.42,1.7.43.85.23.83.31,3.33,1.27,3.18,1.65a26,26,0,0,1,3,1.9,28.28,28.28,0,0,1,2.87,2.07l1.35,1.11,1.26,1.18c.85.77,1.61,1.6,2.36,2.41a76.07,76.07,0,0,1,7.31,9.5c1.94,2.9,3.4,5.4,4.43,7.14s1.58,2.76,1.58,2.76c-1.78-1.39-3.56-2.75-5.36-4.06-1.4-2.48-2.83-5-4.41-7.31a65.19,65.19,0,0,0-5.09-6.81,39.59,39.59,0,0,0-6.12-5.88c-1.16-.81-2.27-1.73-3.48-2.47s-2.47-1.44-3.75-2.08a37,37,0,0,0-16.77-3.7A45,45,0,0,0,364.49,423.12Z" transform="translate(-243.01 -71.13)"/>
    <path class="cls-8" d="M372.37,424.49c.16,0,1.12-.38,2.7-.78l2.83-.53a11.4,11.4,0,0,1,1.72-.21l1.9-.17a13.76,13.76,0,0,1,2,0l2.19.05c.74,0,1.5.18,2.27.26s1.57.16,2.35.37l2.38.6c.4.12.82.18,1.21.33l1.18.46,2.38.9,2.28,1.2a34,34,0,0,1,4.34,2.72,20.08,20.08,0,0,1,2,1.52,21.9,21.9,0,0,1,1.82,1.64,53.08,53.08,0,0,1,5.93,6.71c1.6,2.12,2.84,4,3.7,5.29s1.32,2.08,1.32,2.08c-1.43-1-2.9-2-4.34-2.89a60.88,60.88,0,0,0-7.77-10.13,29.66,29.66,0,0,0-4.67-4,17.52,17.52,0,0,0-2.57-1.73c-.89-.5-1.77-1-2.69-1.53A35.08,35.08,0,0,0,372.37,424.49Z" transform="translate(-243.01 -71.13)"/>
    <path class="cls-8" d="M378.09,426.93a8.88,8.88,0,0,1,2-.29l2.05-.19c.78-.05,1.65,0,2.59,0a30.64,30.64,0,0,1,13,3.52c.55.28,1.1.56,1.64.85l1.54,1,1.51,1c.5.34.92.74,1.37,1.09l.66.54.62.59,1.21,1.14c.75.83,1.49,1.55,2.12,2.31,1.29,1.48,2.3,2.82,3,3.75l1.09,1.52-1.73-1L409,442a45.5,45.5,0,0,0-6.11-7,34.73,34.73,0,0,0-3.51-2.76A12.9,12.9,0,0,0,397.5,431l-1.93-1.13-2-.87-1-.45c-.35-.13-.71-.21-1.06-.33l-2.12-.65c-.72-.17-1.46-.26-2.19-.41l-1.1-.21c-.37-.07-.75-.05-1.12-.09l-2.26-.16c-.76,0-1.52.06-2.28.07l-1.15,0A11,11,0,0,0,378.09,426.93Z" transform="translate(-243.01 -71.13)"/>
    <path class="cls-8" d="M381.24,429.46c.09,0,.62-.09,1.46-.14l1.48,0h.9a4.67,4.67,0,0,1,1,.07,28.65,28.65,0,0,1,9.4,2.63c.79.43,1.59.84,2.38,1.24L400,434.8a15.24,15.24,0,0,1,1.93,1.47,19.88,19.88,0,0,1,1.65,1.48c.51.45,1,.95,1.36,1.38s.76.79,1,1.12l.88,1.05a27.55,27.55,0,0,0-2.72-1.09c-.75-.93-1.54-1.7-2.31-2.52a22.84,22.84,0,0,0-2.46-2.1,29.17,29.17,0,0,0-5.54-3.48A27.13,27.13,0,0,0,381.24,429.46Z" transform="translate(-243.01 -71.13)"/>
  </g>
  <g>
    <line class="cls-13" x1="168.11" y1="131.65" x2="153.44" y2="89.42"/>
    <path d="M412.32,202.45l-5-14.28-7.9-22.74-1.81-5.21c-.52-1.51-2.94-.86-2.41.67l5,14.28,7.9,22.74,1.81,5.2c.52,1.51,2.94.86,2.41-.66Z" transform="translate(-243.01 -71.13)"/>
  </g>
  <g>
    <line class="cls-13" x1="173.59" y1="131.5" x2="158.92" y2="89.28"/>
    <path d="M417.8,202.3l-5-14.28-7.9-22.74-1.81-5.2c-.52-1.51-2.94-.86-2.41.66l5,14.28,7.9,22.74,1.81,5.2c.52,1.51,2.94.86,2.41-.66Z" transform="translate(-243.01 -71.13)"/>
  </g>
  <g>
    <line class="cls-13" x1="180.25" y1="132.83" x2="165.59" y2="90.61"/>
    <path d="M424.46,203.63l-4.95-14.28-7.9-22.74-1.81-5.2c-.53-1.51-2.94-.86-2.41.66l5,14.28,7.9,22.74,1.8,5.21c.53,1.51,2.94.86,2.41-.67Z" transform="translate(-243.01 -71.13)"/>
  </g>
  <line class="cls-18" x1="213.99" y1="203.91" x2="227.72" y2="240.54"/>
</svg>
